<svg width="1440" height="116" viewBox="0 0 1440 116" fill="none" xmlns="http://www.w3.org/2000/svg">
<rect width="1440" height="116" fill="white"/>
<g clip-path="url(#clip0_22721_6750)">
<path d="M64.9567 50H60V85.7986H64.9567V72.5177C64.9567 70.2709 65.5156 68.4984 66.6333 67.2502C67.7509 66.002 69.2817 65.353 71.1769 65.353C72.8049 65.353 74.1655 65.9521 75.2589 67.1004C76.3523 68.2738 76.9112 69.7466 76.9112 71.5191V85.8236H81.8922V71.5191C81.8922 68.2238 80.9932 65.6276 79.1951 63.6804C77.3971 61.7332 75.0402 60.7596 72.1731 60.7596C71.347 60.7596 70.5209 60.8594 69.7191 61.0841C68.8929 61.3088 68.2369 61.5584 67.7024 61.833C67.1678 62.1076 66.6576 62.4072 66.1959 62.7567C65.7342 63.1062 65.4184 63.3558 65.2726 63.5056C65.1268 63.6554 65.0053 63.7552 64.9567 63.8301V50Z" fill="#F0145A"/>
<path d="M92.9726 50H87.8628V85.7689H92.9726V50Z" fill="#323264"/>
<path d="M123.111 75.293L123.367 72.7381C123.367 69.3145 122.243 66.453 119.943 64.1536C117.644 61.8541 114.782 60.73 111.359 60.73C107.935 60.73 104.972 61.9563 102.519 64.4091C100.066 66.8618 98.8397 69.7744 98.8397 73.2491C98.8397 76.826 100.117 79.8919 102.621 82.4468C105.125 85.0017 108.14 86.2792 111.614 86.2792C112.943 86.2792 114.169 86.0748 115.396 85.7171C116.622 85.3083 117.644 84.8995 118.359 84.4907C119.126 84.0308 119.892 83.5199 120.557 82.9578C121.221 82.3957 121.681 81.9869 121.885 81.7314C122.089 81.4759 122.243 81.3226 122.345 81.1693L119.024 77.8479L118.257 78.8188C117.746 79.432 116.877 80.0452 115.651 80.7095C114.374 81.3737 113.045 81.6803 111.614 81.6803C109.621 81.6803 107.935 81.0671 106.504 79.7897C105.074 78.5122 104.205 77.0304 103.95 75.293H123.111ZM111.359 65.0733C113.249 65.0733 114.782 65.6354 116.06 66.7085C117.286 67.8327 118.053 69.2123 118.359 70.9497H104.154C104.614 69.2123 105.431 67.8327 106.709 66.7085C107.935 65.6354 109.519 65.0733 111.359 65.0733Z" fill="#323264"/>
<path d="M146.943 84.2863C146.943 86.5347 146.279 88.3742 144.899 89.805C143.57 91.1846 141.884 91.9 139.789 91.9C138.869 91.9 137.95 91.7467 137.081 91.4912C136.212 91.2357 135.548 90.9291 134.986 90.5714C134.424 90.2137 133.913 89.856 133.402 89.3962C132.942 88.9363 132.635 88.6297 132.482 88.4764C132.329 88.3231 132.227 88.1698 132.124 88.0676L128.803 91.389L129.212 91.9C129.467 92.2577 129.927 92.7176 130.54 93.2285C131.153 93.6884 131.869 94.1994 132.686 94.7104C133.504 95.1703 134.526 95.5791 135.803 95.9368C137.081 96.2944 138.409 96.4988 139.789 96.4988C143.264 96.4988 146.125 95.3236 148.527 92.9731C150.877 90.5714 152.053 87.7099 152.053 84.2352V61.241H146.943V63.7959L146.074 63.0294C145.512 62.5184 144.643 62.0074 143.417 61.4965C142.191 60.9855 140.862 60.73 139.534 60.73C136.417 60.73 133.76 61.9052 131.46 64.3069C129.161 66.7085 128.036 69.57 128.036 72.9936C128.036 76.4172 129.161 79.2787 131.46 81.6803C133.76 84.0819 136.417 85.2572 139.534 85.2572C140.402 85.2572 141.22 85.155 142.089 84.9506C142.906 84.6951 143.57 84.4396 144.132 84.1841C144.695 83.9286 145.206 83.622 145.665 83.2644C146.125 82.9067 146.483 82.6512 146.585 82.549L146.943 82.1913V84.2863ZM133.146 72.9936C133.146 70.8475 133.811 69.059 135.19 67.5772C136.57 66.0953 138.205 65.3288 140.045 65.3288C141.884 65.3288 143.519 66.0953 144.899 67.5772C146.228 69.059 146.943 70.8475 146.943 72.9936C146.943 75.1397 146.228 76.9282 144.899 78.41C143.519 79.8919 141.884 80.6583 140.045 80.6583C138.205 80.6583 136.57 79.8919 135.19 78.41C133.811 76.9282 133.146 75.1397 133.146 72.9936Z" fill="#323264"/>
<path d="M178.724 85.7682V69.9277C178.724 67.3217 177.753 65.1244 175.863 63.3871C173.972 61.5987 171.519 60.73 168.504 60.73C167.329 60.73 166.154 60.8833 165.03 61.1899C163.906 61.5476 162.986 61.9052 162.321 62.314C161.657 62.7228 160.993 63.1827 160.38 63.7448C159.767 64.2558 159.409 64.6135 159.204 64.8179C159.051 65.0222 158.898 65.1755 158.796 65.3288L162.117 68.6502L162.781 67.7816C163.19 67.2195 163.906 66.7085 164.979 66.1464C166.052 65.5843 167.227 65.3288 168.504 65.3288C169.986 65.3288 171.213 65.7887 172.183 66.6574C173.154 67.5261 173.614 68.6502 173.614 69.9277L164.672 71.4606C162.475 71.8183 160.686 72.687 159.46 74.0667C158.183 75.4463 157.518 77.1326 157.518 79.1254C157.518 81.016 158.336 82.6512 159.971 84.0819C161.657 85.5638 163.701 86.2792 166.205 86.2792C167.074 86.2792 167.891 86.177 168.709 85.9215C169.577 85.7171 170.242 85.4616 170.804 85.2061C171.366 84.9506 171.877 84.644 172.337 84.2863C172.797 83.9287 173.103 83.6732 173.308 83.571C173.461 83.4177 173.563 83.2644 173.614 83.2133V85.7682H178.724ZM166.971 81.6803C165.643 81.6803 164.57 81.3737 163.803 80.7606C162.986 80.1474 162.628 79.432 162.628 78.6144C162.628 77.7457 162.884 76.9793 163.446 76.4172C164.008 75.8551 164.774 75.4463 165.694 75.293L173.614 74.0156V74.5265C173.614 76.826 173.052 78.5633 171.877 79.8408C170.702 81.0671 169.066 81.6803 166.971 81.6803Z" fill="#323264"/>
<path d="M190 50H184.89V85.7689H190V50Z" fill="#323264"/>
<path d="M60 103.118H61.5991V108.725H65.064V110.028H60V103.118Z" fill="#323264"/>
<path d="M75.5016 108.548H72.2934L71.6814 110.028H70.0428L73.1226 103.118H74.702L77.7917 110.028H76.1136L75.5016 108.548ZM74.9982 107.333L73.9025 104.688L72.8067 107.333H74.9982Z" fill="#323264"/>
<path d="M93.5121 103.118L91.2516 110.028H89.534L88.0138 105.349L86.4443 110.028H84.7366L82.4662 103.118H84.1245L85.6842 107.975L87.313 103.118H88.7937L90.3731 108.015L91.9821 103.118H93.5121Z" fill="#323264"/>
<path d="M110.523 110.147C109.819 110.147 109.181 109.995 108.608 109.693C108.042 109.383 107.595 108.959 107.266 108.419C106.943 107.873 106.782 107.258 106.782 106.573C106.782 105.889 106.943 105.277 107.266 104.737C107.595 104.191 108.042 103.767 108.608 103.464C109.181 103.155 109.822 103 110.533 103C111.132 103 111.672 103.105 112.152 103.316C112.639 103.526 113.047 103.829 113.376 104.224L112.349 105.172C111.882 104.632 111.303 104.362 110.612 104.362C110.184 104.362 109.803 104.458 109.467 104.649C109.131 104.833 108.868 105.093 108.677 105.428C108.493 105.764 108.401 106.146 108.401 106.573C108.401 107.001 108.493 107.383 108.677 107.718C108.868 108.054 109.131 108.317 109.467 108.508C109.803 108.692 110.184 108.785 110.612 108.785C111.303 108.785 111.882 108.511 112.349 107.965L113.376 108.913C113.047 109.314 112.639 109.62 112.152 109.831C111.665 110.042 111.122 110.147 110.523 110.147Z" fill="#323264"/>
<path d="M122.593 110.147C121.876 110.147 121.228 109.992 120.649 109.683C120.076 109.374 119.625 108.949 119.296 108.409C118.974 107.863 118.813 107.251 118.813 106.573C118.813 105.896 118.974 105.287 119.296 104.747C119.625 104.201 120.076 103.773 120.649 103.464C121.228 103.155 121.876 103 122.593 103C123.311 103 123.956 103.155 124.528 103.464C125.101 103.773 125.551 104.201 125.88 104.747C126.209 105.287 126.374 105.896 126.374 106.573C126.374 107.251 126.209 107.863 125.88 108.409C125.551 108.949 125.101 109.374 124.528 109.683C123.956 109.992 123.311 110.147 122.593 110.147ZM122.593 108.785C123.001 108.785 123.37 108.692 123.699 108.508C124.028 108.317 124.285 108.054 124.469 107.718C124.66 107.383 124.755 107.001 124.755 106.573C124.755 106.146 124.66 105.764 124.469 105.428C124.285 105.093 124.028 104.833 123.699 104.649C123.37 104.458 123.001 104.362 122.593 104.362C122.185 104.362 121.817 104.458 121.488 104.649C121.159 104.833 120.899 105.093 120.708 105.428C120.524 105.764 120.431 106.146 120.431 106.573C120.431 107.001 120.524 107.383 120.708 107.718C120.899 108.054 121.159 108.317 121.488 108.508C121.817 108.692 122.185 108.785 122.593 108.785Z" fill="#323264"/>
<path d="M138.799 110.028L138.79 105.882L136.756 109.298H136.036L134.012 105.971V110.028H132.511V103.118H133.834L136.42 107.412L138.967 103.118H140.28L140.3 110.028H138.799Z" fill="#323264"/>
<path d="M149.866 103.118C150.478 103.118 151.008 103.22 151.455 103.424C151.909 103.628 152.258 103.918 152.502 104.293C152.745 104.668 152.867 105.112 152.867 105.626C152.867 106.132 152.745 106.577 152.502 106.958C152.258 107.333 151.909 107.623 151.455 107.827C151.008 108.024 150.478 108.123 149.866 108.123H148.474V110.028H146.875V103.118H149.866ZM149.777 106.82C150.257 106.82 150.623 106.718 150.873 106.514C151.123 106.304 151.248 106.007 151.248 105.626C151.248 105.237 151.123 104.941 150.873 104.737C150.623 104.527 150.257 104.421 149.777 104.421H148.474V106.82H149.777Z" fill="#323264"/>
<path d="M163.148 108.548H159.94L159.328 110.028H157.689L160.769 103.118H162.348L165.438 110.028H163.76L163.148 108.548ZM162.644 107.333L161.549 104.688L160.453 107.333H162.644Z" fill="#323264"/>
<path d="M177.428 103.118V110.028H176.115L172.67 105.833V110.028H171.09V103.118H172.413L175.848 107.314V103.118H177.428Z" fill="#323264"/>
<path d="M187.315 107.58V110.028H185.716V107.561L183.041 103.118H184.739L186.585 106.188L188.43 103.118H190L187.315 107.58Z" fill="#323264"/>
<path fill-rule="evenodd" clip-rule="evenodd" d="M209.175 50H215L199.825 97H194L209.175 50Z" fill="#F0145A"/>
<path d="M229.188 65.92C231.66 65.92 233.556 66.544 234.876 67.792C236.196 69.016 236.856 70.84 236.856 73.264V85H234.408V82.048C233.832 83.032 232.98 83.8 231.852 84.352C230.748 84.904 229.428 85.18 227.892 85.18C225.78 85.18 224.1 84.676 222.852 83.668C221.604 82.66 220.98 81.328 220.98 79.672C220.98 78.064 221.556 76.768 222.708 75.784C223.884 74.8 225.744 74.308 228.288 74.308H234.3V73.156C234.3 71.524 233.844 70.288 232.932 69.448C232.02 68.584 230.688 68.152 228.936 68.152C227.736 68.152 226.584 68.356 225.48 68.764C224.376 69.148 223.428 69.688 222.636 70.384L221.484 68.476C222.444 67.66 223.596 67.036 224.94 66.604C226.284 66.148 227.7 65.92 229.188 65.92ZM228.288 83.164C229.728 83.164 230.964 82.84 231.996 82.192C233.028 81.52 233.796 80.56 234.3 79.312V76.216H228.36C225.12 76.216 223.5 77.344 223.5 79.6C223.5 80.704 223.92 81.58 224.76 82.228C225.6 82.852 226.776 83.164 228.288 83.164ZM253.554 65.92C255.33 65.92 256.938 66.328 258.378 67.144C259.818 67.936 260.946 69.064 261.762 70.528C262.578 71.992 262.986 73.66 262.986 75.532C262.986 77.404 262.578 79.072 261.762 80.536C260.946 82 259.818 83.14 258.378 83.956C256.938 84.772 255.33 85.18 253.554 85.18C251.97 85.18 250.542 84.844 249.27 84.172C248.022 83.5 247.014 82.528 246.246 81.256V85H243.798V58.288H246.354V69.664C247.146 68.44 248.154 67.516 249.378 66.892C250.626 66.244 252.018 65.92 253.554 65.92ZM253.374 82.912C254.694 82.912 255.894 82.612 256.974 82.012C258.054 81.388 258.894 80.512 259.494 79.384C260.118 78.256 260.43 76.972 260.43 75.532C260.43 74.092 260.118 72.808 259.494 71.68C258.894 70.552 258.054 69.688 256.974 69.088C255.894 68.464 254.694 68.152 253.374 68.152C252.03 68.152 250.818 68.464 249.738 69.088C248.682 69.688 247.842 70.552 247.218 71.68C246.618 72.808 246.318 74.092 246.318 75.532C246.318 76.972 246.618 78.256 247.218 79.384C247.842 80.512 248.682 81.388 249.738 82.012C250.818 82.612 252.03 82.912 253.374 82.912ZM275.937 85.18C274.113 85.18 272.469 84.772 271.005 83.956C269.541 83.116 268.389 81.964 267.549 80.5C266.709 79.036 266.289 77.38 266.289 75.532C266.289 73.684 266.709 72.028 267.549 70.564C268.389 69.1 269.541 67.96 271.005 67.144C272.469 66.328 274.113 65.92 275.937 65.92C277.761 65.92 279.405 66.328 280.869 67.144C282.333 67.96 283.473 69.1 284.289 70.564C285.129 72.028 285.549 73.684 285.549 75.532C285.549 77.38 285.129 79.036 284.289 80.5C283.473 81.964 282.333 83.116 280.869 83.956C279.405 84.772 277.761 85.18 275.937 85.18ZM275.937 82.912C277.281 82.912 278.481 82.612 279.537 82.012C280.617 81.388 281.457 80.512 282.057 79.384C282.657 78.256 282.957 76.972 282.957 75.532C282.957 74.092 282.657 72.808 282.057 71.68C281.457 70.552 280.617 69.688 279.537 69.088C278.481 68.464 277.281 68.152 275.937 68.152C274.593 68.152 273.381 68.464 272.301 69.088C271.245 69.688 270.405 70.552 269.781 71.68C269.181 72.808 268.881 74.092 268.881 75.532C268.881 76.972 269.181 78.256 269.781 79.384C270.405 80.512 271.245 81.388 272.301 82.012C273.381 82.612 274.593 82.912 275.937 82.912ZM307.831 66.064V85H305.383V81.544C304.711 82.696 303.787 83.596 302.611 84.244C301.435 84.868 300.091 85.18 298.579 85.18C296.107 85.18 294.151 84.496 292.711 83.128C291.295 81.736 290.587 79.708 290.587 77.044V66.064H293.143V76.792C293.143 78.784 293.635 80.296 294.619 81.328C295.603 82.36 297.007 82.876 298.831 82.876C300.823 82.876 302.395 82.276 303.547 81.076C304.699 79.852 305.275 78.16 305.275 76V66.064H307.831ZM324.962 83.848C324.482 84.28 323.882 84.616 323.162 84.856C322.466 85.072 321.734 85.18 320.966 85.18C319.19 85.18 317.822 84.7 316.862 83.74C315.902 82.78 315.422 81.424 315.422 79.672V68.224H312.038V66.064H315.422V61.924H317.978V66.064H323.738V68.224H317.978V79.528C317.978 80.656 318.254 81.52 318.806 82.12C319.382 82.696 320.198 82.984 321.254 82.984C321.782 82.984 322.286 82.9 322.766 82.732C323.27 82.564 323.702 82.324 324.062 82.012L324.962 83.848ZM356.101 66.064V85H353.653V81.544C352.981 82.696 352.057 83.596 350.881 84.244C349.705 84.868 348.361 85.18 346.849 85.18C344.377 85.18 342.421 84.496 340.981 83.128C339.565 81.736 338.857 79.708 338.857 77.044V66.064H341.413V76.792C341.413 78.784 341.905 80.296 342.889 81.328C343.873 82.36 345.277 82.876 347.101 82.876C349.093 82.876 350.665 82.276 351.817 81.076C352.969 79.852 353.545 78.16 353.545 76V66.064H356.101ZM368.335 85.18C366.799 85.18 365.323 84.964 363.907 84.532C362.515 84.076 361.423 83.512 360.631 82.84L361.783 80.824C362.575 81.448 363.571 81.964 364.771 82.372C365.971 82.756 367.219 82.948 368.515 82.948C370.243 82.948 371.515 82.684 372.331 82.156C373.171 81.604 373.591 80.836 373.591 79.852C373.591 79.156 373.363 78.616 372.907 78.232C372.451 77.824 371.875 77.524 371.179 77.332C370.483 77.116 369.559 76.912 368.407 76.72C366.871 76.432 365.635 76.144 364.699 75.856C363.763 75.544 362.959 75.028 362.287 74.308C361.639 73.588 361.315 72.592 361.315 71.32C361.315 69.736 361.975 68.44 363.295 67.432C364.615 66.424 366.451 65.92 368.803 65.92C370.027 65.92 371.251 66.088 372.475 66.424C373.699 66.736 374.707 67.156 375.499 67.684L374.383 69.736C372.823 68.656 370.963 68.116 368.803 68.116C367.171 68.116 365.935 68.404 365.095 68.98C364.279 69.556 363.871 70.312 363.871 71.248C363.871 71.968 364.099 72.544 364.555 72.976C365.035 73.408 365.623 73.732 366.319 73.948C367.015 74.14 367.975 74.344 369.199 74.56C370.711 74.848 371.923 75.136 372.835 75.424C373.747 75.712 374.527 76.204 375.175 76.9C375.823 77.596 376.147 78.556 376.147 79.78C376.147 81.436 375.451 82.756 374.059 83.74C372.691 84.7 370.783 85.18 368.335 85.18Z" fill="#323264"/>
</g>
<g clip-path="url(#clip1_22721_6750)">
<path d="M917.962 58.6L914.386 65.248C914.042 65.888 913.626 66.372 913.138 66.7C912.658 67.028 912.134 67.192 911.566 67.192C911.126 67.192 910.67 67.096 910.198 66.904L910.666 65.428C911.002 65.532 911.282 65.584 911.506 65.584C911.746 65.584 911.962 65.528 912.154 65.416C912.346 65.296 912.522 65.112 912.682 64.864L912.754 64.768L909.442 58.6H911.518L913.75 63.112L916.054 58.6H917.962ZM923.138 63.616H921.794V67H919.862V58.6H921.794V61.996H923.186L925.394 58.6H927.446L924.698 62.656L927.53 67H925.322L923.138 63.616Z" fill="#B3B3BA"/>
<path d="M947.149 58.6C947.893 58.6 948.537 58.724 949.081 58.972C949.633 59.22 950.057 59.572 950.353 60.028C950.649 60.484 950.797 61.024 950.797 61.648C950.797 62.264 950.649 62.804 950.353 63.268C950.057 63.724 949.633 64.076 949.081 64.324C948.537 64.564 947.893 64.684 947.149 64.684H945.457V67H943.513V58.6H947.149ZM947.041 63.1C947.625 63.1 948.069 62.976 948.373 62.728C948.677 62.472 948.829 62.112 948.829 61.648C948.829 61.176 948.677 60.816 948.373 60.568C948.069 60.312 947.625 60.184 947.041 60.184H945.457V63.1H947.041ZM960.476 58.6L956.9 65.248C956.556 65.888 956.14 66.372 955.652 66.7C955.172 67.028 954.648 67.192 954.08 67.192C953.64 67.192 953.184 67.096 952.712 66.904L953.18 65.428C953.516 65.532 953.796 65.584 954.02 65.584C954.26 65.584 954.476 65.528 954.668 65.416C954.86 65.296 955.036 65.112 955.196 64.864L955.268 64.768L951.956 58.6H954.032L956.264 63.112L958.568 58.6H960.476Z" fill="#B3B3BA"/>
<rect x="968" y="50" width="33" height="25" rx="8" fill="#F0145A"/>
<path d="M982.629 65.44V67H976.125V58.6H982.473V60.16H978.057V61.984H981.957V63.496H978.057V65.44H982.629ZM992.88 58.6V67H991.284L987.096 61.9V67H985.176V58.6H986.784L990.96 63.7V58.6H992.88Z" fill="white"/>
<circle cx="1010" cy="62.5" r="3" fill="#E6E6F0"/>
<path d="M1024.33 63.236L1022.04 65.556V68.5H1020.86V57.3H1022.04V64.068L1028.62 57.3H1029.98L1025.13 62.372L1030.31 68.5H1028.9L1024.33 63.236ZM1038.48 60.084L1034.28 69.508C1033.93 70.2973 1033.54 70.8573 1033.09 71.188C1032.64 71.5187 1032.11 71.684 1031.48 71.684C1031.07 71.684 1030.69 71.62 1030.34 71.492C1029.99 71.364 1029.68 71.172 1029.43 70.916L1029.96 70.068C1030.38 70.4947 1030.89 70.708 1031.49 70.708C1031.88 70.708 1032.2 70.6013 1032.47 70.388C1032.75 70.1747 1033 69.812 1033.24 69.3L1033.6 68.484L1029.84 60.084H1031.03L1034.2 67.236L1037.36 60.084H1038.48ZM1040.08 60.084H1041.22V68.5H1040.08V60.084ZM1040.66 58.244C1040.43 58.244 1040.23 58.164 1040.07 58.004C1039.91 57.844 1039.83 57.652 1039.83 57.428C1039.83 57.2147 1039.91 57.028 1040.07 56.868C1040.23 56.708 1040.43 56.628 1040.66 56.628C1040.89 56.628 1041.09 56.708 1041.25 56.868C1041.41 57.0173 1041.49 57.1987 1041.49 57.412C1041.49 57.6467 1041.41 57.844 1041.25 58.004C1041.09 58.164 1040.89 58.244 1040.66 58.244ZM1051.45 60.084L1047.71 68.5H1046.54L1042.81 60.084H1044L1047.15 67.252L1050.33 60.084H1051.45ZM1052.63 66.836C1052.88 66.836 1053.08 66.9213 1053.24 67.092C1053.4 67.252 1053.48 67.4547 1053.48 67.7C1053.48 67.828 1053.46 67.9667 1053.42 68.116C1053.39 68.2653 1053.33 68.436 1053.26 68.628L1052.59 70.836H1051.82L1052.36 68.516C1052.19 68.4627 1052.05 68.3667 1051.95 68.228C1051.84 68.0787 1051.79 67.9027 1051.79 67.7C1051.79 67.4547 1051.87 67.252 1052.03 67.092C1052.19 66.9213 1052.39 66.836 1052.63 66.836ZM1071.96 57.3V68.5H1070.82V59.54L1066.42 67.076H1065.86L1061.46 59.588V68.5H1060.32V57.3H1061.3L1066.16 65.604L1070.98 57.3H1071.96ZM1082.69 64.644H1075.65C1075.72 65.5187 1076.05 66.228 1076.66 66.772C1077.27 67.3053 1078.04 67.572 1078.97 67.572C1079.49 67.572 1079.97 67.4813 1080.41 67.3C1080.84 67.108 1081.22 66.8307 1081.54 66.468L1082.18 67.204C1081.81 67.652 1081.34 67.9933 1080.77 68.228C1080.22 68.4627 1079.61 68.58 1078.93 68.58C1078.07 68.58 1077.3 68.3987 1076.63 68.036C1075.97 67.6627 1075.45 67.1507 1075.08 66.5C1074.7 65.8493 1074.52 65.1133 1074.52 64.292C1074.52 63.4707 1074.69 62.7347 1075.05 62.084C1075.41 61.4333 1075.9 60.9267 1076.52 60.564C1077.15 60.2013 1077.85 60.02 1078.63 60.02C1079.41 60.02 1080.11 60.2013 1080.73 60.564C1081.34 60.9267 1081.83 61.4333 1082.18 62.084C1082.53 62.724 1082.71 63.46 1082.71 64.292L1082.69 64.644ZM1078.63 60.996C1077.82 60.996 1077.14 61.2573 1076.58 61.78C1076.04 62.292 1075.73 62.964 1075.65 63.796H1081.62C1081.55 62.964 1081.23 62.292 1080.68 61.78C1080.13 61.2573 1079.45 60.996 1078.63 60.996ZM1088.51 68.58C1087.68 68.58 1086.93 68.3987 1086.27 68.036C1085.62 67.6733 1085.11 67.1667 1084.73 66.516C1084.36 65.8547 1084.17 65.1133 1084.17 64.292C1084.17 63.4707 1084.36 62.7347 1084.73 62.084C1085.11 61.4333 1085.62 60.9267 1086.27 60.564C1086.93 60.2013 1087.68 60.02 1088.51 60.02C1089.23 60.02 1089.88 60.164 1090.45 60.452C1091.02 60.7293 1091.47 61.14 1091.81 61.684L1090.96 62.26C1090.68 61.844 1090.33 61.5347 1089.9 61.332C1089.47 61.1187 1089.01 61.012 1088.51 61.012C1087.9 61.012 1087.35 61.1507 1086.86 61.428C1086.38 61.6947 1086 62.0787 1085.73 62.58C1085.46 63.0813 1085.33 63.652 1085.33 64.292C1085.33 64.9427 1085.46 65.5187 1085.73 66.02C1086 66.5107 1086.38 66.8947 1086.86 67.172C1087.35 67.4387 1087.9 67.572 1088.51 67.572C1089.01 67.572 1089.47 67.4707 1089.9 67.268C1090.33 67.0653 1090.68 66.756 1090.96 66.34L1091.81 66.916C1091.47 67.46 1091.02 67.876 1090.45 68.164C1089.87 68.4413 1089.22 68.58 1088.51 68.58ZM1098.2 60.02C1099.26 60.02 1100.09 60.3293 1100.71 60.948C1101.34 61.556 1101.66 62.4467 1101.66 63.62V68.5H1100.52V63.732C1100.52 62.8573 1100.3 62.1907 1099.86 61.732C1099.43 61.2733 1098.8 61.044 1097.99 61.044C1097.09 61.044 1096.37 61.316 1095.83 61.86C1095.31 62.3933 1095.05 63.1347 1095.05 64.084V68.5H1093.91V56.628H1095.05V61.556C1095.36 61.0653 1095.78 60.6867 1096.33 60.42C1096.87 60.1533 1097.5 60.02 1098.2 60.02ZM1109.03 60.02C1110.08 60.02 1110.92 60.3293 1111.54 60.948C1112.17 61.556 1112.48 62.4467 1112.48 63.62V68.5H1111.35V63.732C1111.35 62.8573 1111.13 62.1907 1110.69 61.732C1110.25 61.2733 1109.63 61.044 1108.82 61.044C1107.91 61.044 1107.19 61.316 1106.66 61.86C1106.14 62.3933 1105.88 63.1347 1105.88 64.084V68.5H1104.74V60.084H1105.83V61.636C1106.14 61.124 1106.56 60.7293 1107.11 60.452C1107.66 60.164 1108.3 60.02 1109.03 60.02ZM1115.57 60.084H1116.7V68.5H1115.57V60.084ZM1116.14 58.244C1115.91 58.244 1115.71 58.164 1115.55 58.004C1115.39 57.844 1115.31 57.652 1115.31 57.428C1115.31 57.2147 1115.39 57.028 1115.55 56.868C1115.71 56.708 1115.91 56.628 1116.14 56.628C1116.38 56.628 1116.58 56.708 1116.74 56.868C1116.9 57.0173 1116.98 57.1987 1116.98 57.412C1116.98 57.6467 1116.9 57.844 1116.74 58.004C1116.58 58.164 1116.38 58.244 1116.14 58.244ZM1122.99 64.276L1121 66.1V68.5H1119.87V56.628H1121V64.676L1126.03 60.084H1127.43L1123.83 63.524L1127.77 68.5H1126.38L1122.99 64.276ZM1132.57 68.58C1131.76 68.58 1131.03 68.3987 1130.38 68.036C1129.73 67.6627 1129.22 67.1507 1128.84 66.5C1128.47 65.8493 1128.28 65.1133 1128.28 64.292C1128.28 63.4707 1128.47 62.7347 1128.84 62.084C1129.22 61.4333 1129.73 60.9267 1130.38 60.564C1131.03 60.2013 1131.76 60.02 1132.57 60.02C1133.38 60.02 1134.11 60.2013 1134.76 60.564C1135.41 60.9267 1135.92 61.4333 1136.28 62.084C1136.66 62.7347 1136.84 63.4707 1136.84 64.292C1136.84 65.1133 1136.66 65.8493 1136.28 66.5C1135.92 67.1507 1135.41 67.6627 1134.76 68.036C1134.11 68.3987 1133.38 68.58 1132.57 68.58ZM1132.57 67.572C1133.17 67.572 1133.7 67.4387 1134.17 67.172C1134.65 66.8947 1135.02 66.5053 1135.29 66.004C1135.56 65.5027 1135.69 64.932 1135.69 64.292C1135.69 63.652 1135.56 63.0813 1135.29 62.58C1135.02 62.0787 1134.65 61.6947 1134.17 61.428C1133.7 61.1507 1133.17 61.012 1132.57 61.012C1131.97 61.012 1131.43 61.1507 1130.95 61.428C1130.49 61.6947 1130.11 62.0787 1129.83 62.58C1129.57 63.0813 1129.43 63.652 1129.43 64.292C1129.43 64.932 1129.57 65.5027 1129.83 66.004C1130.11 66.5053 1130.49 66.8947 1130.95 67.172C1131.43 67.4387 1131.97 67.572 1132.57 67.572ZM1146 60.084L1142.26 68.5H1141.09L1137.36 60.084H1138.54L1141.7 67.252L1144.88 60.084H1146ZM1150.29 60.02C1151.39 60.02 1152.23 60.2973 1152.82 60.852C1153.41 61.396 1153.7 62.2067 1153.7 63.284V68.5H1152.61V67.188C1152.36 67.6253 1151.98 67.9667 1151.48 68.212C1150.99 68.4573 1150.4 68.58 1149.72 68.58C1148.78 68.58 1148.03 68.356 1147.48 67.908C1146.92 67.46 1146.65 66.868 1146.65 66.132C1146.65 65.4173 1146.9 64.8413 1147.41 64.404C1147.94 63.9667 1148.76 63.748 1149.89 63.748H1152.57V63.236C1152.57 62.5107 1152.36 61.9613 1151.96 61.588C1151.55 61.204 1150.96 61.012 1150.18 61.012C1149.65 61.012 1149.14 61.1027 1148.65 61.284C1148.15 61.4547 1147.73 61.6947 1147.38 62.004L1146.87 61.156C1147.3 60.7933 1147.81 60.516 1148.41 60.324C1149 60.1213 1149.63 60.02 1150.29 60.02ZM1149.89 67.684C1150.53 67.684 1151.08 67.54 1151.54 67.252C1152 66.9533 1152.34 66.5267 1152.57 65.972V64.596H1149.93C1148.49 64.596 1147.77 65.0973 1147.77 66.1C1147.77 66.5907 1147.95 66.98 1148.33 67.268C1148.7 67.5453 1149.22 67.684 1149.89 67.684ZM1163.23 68.58C1162.55 68.58 1161.89 68.484 1161.26 68.292C1160.64 68.0893 1160.16 67.8387 1159.81 67.54L1160.32 66.644C1160.67 66.9213 1161.11 67.1507 1161.65 67.332C1162.18 67.5027 1162.73 67.588 1163.31 67.588C1164.08 67.588 1164.64 67.4707 1165.01 67.236C1165.38 66.9907 1165.57 66.6493 1165.57 66.212C1165.57 65.9027 1165.47 65.6627 1165.26 65.492C1165.06 65.3107 1164.8 65.1773 1164.49 65.092C1164.19 64.996 1163.77 64.9053 1163.26 64.82C1162.58 64.692 1162.03 64.564 1161.61 64.436C1161.2 64.2973 1160.84 64.068 1160.54 63.748C1160.25 63.428 1160.11 62.9853 1160.11 62.42C1160.11 61.716 1160.4 61.14 1160.99 60.692C1161.58 60.244 1162.39 60.02 1163.44 60.02C1163.98 60.02 1164.53 60.0947 1165.07 60.244C1165.61 60.3827 1166.06 60.5693 1166.41 60.804L1165.92 61.716C1165.23 61.236 1164.4 60.996 1163.44 60.996C1162.71 60.996 1162.16 61.124 1161.79 61.38C1161.43 61.636 1161.25 61.972 1161.25 62.388C1161.25 62.708 1161.35 62.964 1161.55 63.156C1161.76 63.348 1162.03 63.492 1162.33 63.588C1162.64 63.6733 1163.07 63.764 1163.61 63.86C1164.29 63.988 1164.83 64.116 1165.23 64.244C1165.64 64.372 1165.98 64.5907 1166.27 64.9C1166.56 65.2093 1166.7 65.636 1166.7 66.18C1166.7 66.916 1166.39 67.5027 1165.77 67.94C1165.17 68.3667 1164.32 68.58 1163.23 68.58ZM1173.23 67.988C1173.02 68.18 1172.75 68.3293 1172.43 68.436C1172.13 68.532 1171.8 68.58 1171.46 68.58C1170.67 68.58 1170.06 68.3667 1169.63 67.94C1169.21 67.5133 1168.99 66.9107 1168.99 66.132V61.044H1167.49V60.084H1168.99V58.244H1170.13V60.084H1172.69V61.044H1170.13V66.068C1170.13 66.5693 1170.25 66.9533 1170.5 67.22C1170.75 67.476 1171.12 67.604 1171.59 67.604C1171.82 67.604 1172.05 67.5667 1172.26 67.492C1172.48 67.4173 1172.67 67.3107 1172.83 67.172L1173.23 67.988ZM1176.39 61.732C1176.66 61.1667 1177.05 60.74 1177.57 60.452C1178.11 60.164 1178.76 60.02 1179.54 60.02V61.124L1179.27 61.108C1178.39 61.108 1177.69 61.38 1177.19 61.924C1176.69 62.468 1176.44 63.2307 1176.44 64.212V68.5H1175.3V60.084H1176.39V61.732ZM1181.7 66.836C1181.94 66.836 1182.14 66.9213 1182.3 67.092C1182.46 67.252 1182.54 67.4547 1182.54 67.7C1182.54 67.828 1182.52 67.9667 1182.48 68.116C1182.45 68.2653 1182.4 68.436 1182.32 68.628L1181.65 70.836H1180.88L1181.42 68.516C1181.25 68.4627 1181.12 68.3667 1181.01 68.228C1180.9 68.0787 1180.85 67.9027 1180.85 67.7C1180.85 67.4547 1180.93 67.252 1181.09 67.092C1181.25 66.9213 1181.45 66.836 1181.7 66.836ZM1191.5 57.3V68.5H1190.35V58.324H1187.71V57.3H1191.5ZM1203.7 65.556H1201.46V68.5H1200.3V65.556H1193.98V64.724L1199.92 57.3H1201.2L1195.47 64.532H1200.34V61.94H1201.46V64.532H1203.7V65.556ZM1209.26 55.028H1210.3L1205.02 70.1H1203.97L1209.26 55.028ZM1214.15 57.3V68.5H1213V58.324H1210.36V57.3H1214.15Z" fill="#B3B3BA"/>
<circle cx="1225" cy="62.5" r="3" fill="#E6E6F0"/>
<path d="M1239.83 68.692C1238.9 68.692 1238.08 68.4627 1237.35 68.004C1236.62 67.5453 1236.05 66.884 1235.64 66.02C1235.23 65.1453 1235.03 64.1053 1235.03 62.9C1235.03 61.6947 1235.23 60.66 1235.64 59.796C1236.05 58.9213 1236.62 58.2547 1237.35 57.796C1238.08 57.3373 1238.9 57.108 1239.83 57.108C1240.76 57.108 1241.58 57.3373 1242.31 57.796C1243.04 58.2547 1243.6 58.9213 1244.01 59.796C1244.42 60.66 1244.63 61.6947 1244.63 62.9C1244.63 64.1053 1244.42 65.1453 1244.01 66.02C1243.6 66.884 1243.04 67.5453 1242.31 68.004C1241.58 68.4627 1240.76 68.692 1239.83 68.692ZM1239.83 66.5C1240.51 66.5 1241.05 66.2067 1241.43 65.62C1241.82 65.0333 1242.02 64.1267 1242.02 62.9C1242.02 61.6733 1241.82 60.7667 1241.43 60.18C1241.05 59.5933 1240.51 59.3 1239.83 59.3C1239.16 59.3 1238.62 59.5933 1238.23 60.18C1237.85 60.7667 1237.65 61.6733 1237.65 62.9C1237.65 64.1267 1237.85 65.0333 1238.23 65.62C1238.62 66.2067 1239.16 66.5 1239.83 66.5ZM1253.55 62.612C1254.11 62.8893 1254.53 63.252 1254.82 63.7C1255.12 64.148 1255.27 64.6653 1255.27 65.252C1255.27 65.9453 1255.07 66.5533 1254.67 67.076C1254.28 67.588 1253.72 67.988 1253.01 68.276C1252.29 68.5533 1251.47 68.692 1250.53 68.692C1249.59 68.692 1248.76 68.5533 1248.05 68.276C1247.35 67.988 1246.8 67.588 1246.4 67.076C1246.02 66.5533 1245.83 65.9453 1245.83 65.252C1245.83 64.6653 1245.97 64.148 1246.26 63.7C1246.56 63.252 1246.98 62.8893 1247.52 62.612C1247.11 62.356 1246.79 62.036 1246.56 61.652C1246.34 61.2573 1246.23 60.8093 1246.23 60.308C1246.23 59.6573 1246.41 59.092 1246.77 58.612C1247.13 58.132 1247.64 57.764 1248.29 57.508C1248.94 57.2413 1249.69 57.108 1250.53 57.108C1251.38 57.108 1252.13 57.2413 1252.79 57.508C1253.45 57.764 1253.96 58.132 1254.32 58.612C1254.68 59.092 1254.87 59.6573 1254.87 60.308C1254.87 60.8093 1254.75 61.2573 1254.53 61.652C1254.31 62.036 1253.98 62.356 1253.55 62.612ZM1250.53 59.012C1250.01 59.012 1249.59 59.14 1249.27 59.396C1248.96 59.6413 1248.8 59.9827 1248.8 60.42C1248.8 60.8467 1248.96 61.1827 1249.27 61.428C1249.57 61.6733 1250 61.796 1250.53 61.796C1251.06 61.796 1251.49 61.6733 1251.81 61.428C1252.13 61.1827 1252.29 60.8467 1252.29 60.42C1252.29 59.9827 1252.13 59.6413 1251.81 59.396C1251.49 59.14 1251.06 59.012 1250.53 59.012ZM1250.53 66.788C1251.18 66.788 1251.69 66.644 1252.07 66.356C1252.45 66.0573 1252.64 65.6627 1252.64 65.172C1252.64 64.6813 1252.45 64.292 1252.07 64.004C1251.69 63.716 1251.18 63.572 1250.53 63.572C1249.89 63.572 1249.38 63.716 1249.01 64.004C1248.64 64.292 1248.45 64.6813 1248.45 65.172C1248.45 65.6733 1248.64 66.068 1249.01 66.356C1249.38 66.644 1249.89 66.788 1250.53 66.788ZM1261.25 68.692C1260.32 68.692 1259.5 68.4627 1258.77 68.004C1258.05 67.5453 1257.48 66.884 1257.06 66.02C1256.65 65.1453 1256.45 64.1053 1256.45 62.9C1256.45 61.6947 1256.65 60.66 1257.06 59.796C1257.48 58.9213 1258.05 58.2547 1258.77 57.796C1259.5 57.3373 1260.32 57.108 1261.25 57.108C1262.18 57.108 1263.01 57.3373 1263.73 57.796C1264.46 58.2547 1265.02 58.9213 1265.43 59.796C1265.84 60.66 1266.05 61.6947 1266.05 62.9C1266.05 64.1053 1265.84 65.1453 1265.43 66.02C1265.02 66.884 1264.46 67.5453 1263.73 68.004C1263.01 68.4627 1262.18 68.692 1261.25 68.692ZM1261.25 66.5C1261.93 66.5 1262.47 66.2067 1262.85 65.62C1263.25 65.0333 1263.44 64.1267 1263.44 62.9C1263.44 61.6733 1263.25 60.7667 1262.85 60.18C1262.47 59.5933 1261.93 59.3 1261.25 59.3C1260.58 59.3 1260.05 59.5933 1259.65 60.18C1259.27 60.7667 1259.08 61.6733 1259.08 62.9C1259.08 64.1267 1259.27 65.0333 1259.65 65.62C1260.05 66.2067 1260.58 66.5 1261.25 66.5ZM1272.11 68.692C1271.18 68.692 1270.36 68.4627 1269.63 68.004C1268.91 67.5453 1268.34 66.884 1267.92 66.02C1267.51 65.1453 1267.31 64.1053 1267.31 62.9C1267.31 61.6947 1267.51 60.66 1267.92 59.796C1268.34 58.9213 1268.91 58.2547 1269.63 57.796C1270.36 57.3373 1271.18 57.108 1272.11 57.108C1273.04 57.108 1273.87 57.3373 1274.59 57.796C1275.32 58.2547 1275.88 58.9213 1276.29 59.796C1276.7 60.66 1276.91 61.6947 1276.91 62.9C1276.91 64.1053 1276.7 65.1453 1276.29 66.02C1275.88 66.884 1275.32 67.5453 1274.59 68.004C1273.87 68.4627 1273.04 68.692 1272.11 68.692ZM1272.11 66.5C1272.79 66.5 1273.33 66.2067 1273.71 65.62C1274.11 65.0333 1274.3 64.1267 1274.3 62.9C1274.3 61.6733 1274.11 60.7667 1273.71 60.18C1273.33 59.5933 1272.79 59.3 1272.11 59.3C1271.44 59.3 1270.91 59.5933 1270.51 60.18C1270.13 60.7667 1269.94 61.6733 1269.94 62.9C1269.94 64.1267 1270.13 65.0333 1270.51 65.62C1270.91 66.2067 1271.44 66.5 1272.11 66.5ZM1291.07 66.388V68.5H1282.61V66.82L1286.93 62.74C1287.38 62.3027 1287.69 61.9293 1287.85 61.62C1288.01 61.3 1288.09 60.9853 1288.09 60.676C1288.09 60.228 1287.94 59.8867 1287.63 59.652C1287.33 59.4067 1286.89 59.284 1286.3 59.284C1285.81 59.284 1285.37 59.38 1284.97 59.572C1284.58 59.7533 1284.25 60.0307 1283.98 60.404L1282.09 59.188C1282.53 58.5373 1283.13 58.0307 1283.9 57.668C1284.67 57.2947 1285.55 57.108 1286.54 57.108C1287.37 57.108 1288.1 57.2467 1288.72 57.524C1289.35 57.7907 1289.83 58.1747 1290.17 58.676C1290.53 59.1667 1290.7 59.748 1290.7 60.42C1290.7 61.028 1290.57 61.5987 1290.32 62.132C1290.06 62.6653 1289.57 63.2733 1288.83 63.956L1286.25 66.388H1291.07ZM1296.46 57.3V68.5H1293.87V59.38H1291.63V57.3H1296.46ZM1302.73 57.3V68.5H1300.13V59.38H1297.89V57.3H1302.73ZM1313.14 57.108C1314.71 57.108 1315.93 57.588 1316.82 58.548C1317.7 59.4973 1318.15 60.868 1318.15 62.66C1318.15 63.9293 1317.91 65.0173 1317.43 65.924C1316.96 66.8307 1316.29 67.5187 1315.43 67.988C1314.56 68.4573 1313.56 68.692 1312.43 68.692C1311.84 68.692 1311.27 68.628 1310.72 68.5C1310.18 68.3613 1309.71 68.1693 1309.33 67.924L1310.29 66.02C1310.83 66.3933 1311.53 66.58 1312.39 66.58C1313.34 66.58 1314.09 66.3027 1314.64 65.748C1315.2 65.1827 1315.5 64.372 1315.54 63.316C1314.87 63.988 1313.94 64.324 1312.75 64.324C1312.04 64.324 1311.39 64.18 1310.8 63.892C1310.22 63.604 1309.75 63.1987 1309.41 62.676C1309.07 62.1427 1308.9 61.5293 1308.9 60.836C1308.9 60.0893 1309.08 59.4333 1309.46 58.868C1309.83 58.3027 1310.34 57.8707 1310.98 57.572C1311.63 57.2627 1312.35 57.108 1313.14 57.108ZM1313.33 62.388C1313.9 62.388 1314.35 62.2333 1314.71 61.924C1315.07 61.604 1315.25 61.1987 1315.25 60.708C1315.25 60.2173 1315.07 59.8173 1314.72 59.508C1314.38 59.1987 1313.91 59.044 1313.3 59.044C1312.74 59.044 1312.29 59.1933 1311.94 59.492C1311.6 59.7907 1311.43 60.196 1311.43 60.708C1311.43 61.22 1311.6 61.6307 1311.94 61.94C1312.29 62.2387 1312.75 62.388 1313.33 62.388ZM1327.66 66.388V68.5H1319.2V66.82L1323.52 62.74C1323.98 62.3027 1324.29 61.9293 1324.45 61.62C1324.61 61.3 1324.69 60.9853 1324.69 60.676C1324.69 60.228 1324.53 59.8867 1324.22 59.652C1323.93 59.4067 1323.48 59.284 1322.9 59.284C1322.41 59.284 1321.96 59.38 1321.57 59.572C1321.17 59.7533 1320.84 60.0307 1320.58 60.404L1318.69 59.188C1319.13 58.5373 1319.73 58.0307 1320.5 57.668C1321.26 57.2947 1322.14 57.108 1323.14 57.108C1323.97 57.108 1324.69 57.2467 1325.31 57.524C1325.94 57.7907 1326.43 58.1747 1326.77 58.676C1327.12 59.1667 1327.3 59.748 1327.3 60.42C1327.3 61.028 1327.17 61.5987 1326.91 62.132C1326.66 62.6653 1326.16 63.2733 1325.42 63.956L1322.85 66.388H1327.66ZM1337.47 57.3V58.98L1333.31 68.5H1330.49L1334.51 59.412H1330.8V61.236H1328.49V57.3H1337.47Z" fill="#B3B3BA"/>
<circle cx="1347" cy="62.5" r="3" fill="#E6E6F0"/>
<g clip-path="url(#clip2_22721_6750)">
<path d="M1380 62.5733C1380 55.9054 1374.63 50.5 1368 50.5C1361.37 50.5 1356 55.9054 1356 62.5733C1356 68.5995 1360.39 73.5943 1366.13 74.5V66.0633H1363.08V62.5733H1366.13V59.9134C1366.13 56.8875 1367.92 55.2161 1370.66 55.2161C1371.97 55.2161 1373.34 55.452 1373.34 55.452V58.4231H1371.83C1370.34 58.4231 1369.87 59.3538 1369.87 60.3086V62.5733H1373.2L1372.67 66.0633H1369.87V74.5C1375.61 73.5943 1380 68.5995 1380 62.5733Z" fill="#B3B3BA"/>
</g>
</g>
<path d="M969.265 98.264C970.598 98.264 971.622 98.584 972.337 99.224C973.051 99.8533 973.409 100.808 973.409 102.088V107H971.073V105.928C970.603 106.728 969.729 107.128 968.449 107.128C967.787 107.128 967.211 107.016 966.721 106.792C966.241 106.568 965.873 106.259 965.617 105.864C965.361 105.469 965.233 105.021 965.233 104.52C965.233 103.72 965.531 103.091 966.129 102.632C966.737 102.173 967.67 101.944 968.929 101.944H970.913C970.913 101.4 970.747 100.984 970.417 100.696C970.086 100.397 969.59 100.248 968.929 100.248C968.47 100.248 968.017 100.323 967.569 100.472C967.131 100.611 966.758 100.803 966.449 101.048L965.553 99.304C966.022 98.9733 966.582 98.7173 967.233 98.536C967.894 98.3547 968.571 98.264 969.265 98.264ZM969.073 105.448C969.499 105.448 969.878 105.352 970.209 105.16C970.539 104.957 970.774 104.664 970.913 104.28V103.4H969.201C968.177 103.4 967.665 103.736 967.665 104.408C967.665 104.728 967.787 104.984 968.033 105.176C968.289 105.357 968.635 105.448 969.073 105.448ZM980.756 98.264C981.556 98.264 982.281 98.4507 982.932 98.824C983.593 99.1867 984.11 99.704 984.484 100.376C984.857 101.037 985.044 101.811 985.044 102.696C985.044 103.581 984.857 104.36 984.484 105.032C984.11 105.693 983.593 106.211 982.932 106.584C982.281 106.947 981.556 107.128 980.756 107.128C979.572 107.128 978.67 106.755 978.052 106.008V107H975.668V95.128H978.164V99.304C978.793 98.6107 979.657 98.264 980.756 98.264ZM980.324 105.08C980.964 105.08 981.486 104.867 981.892 104.44C982.308 104.003 982.516 103.421 982.516 102.696C982.516 101.971 982.308 101.395 981.892 100.968C981.486 100.531 980.964 100.312 980.324 100.312C979.684 100.312 979.156 100.531 978.74 100.968C978.334 101.395 978.132 101.971 978.132 102.696C978.132 103.421 978.334 104.003 978.74 104.44C979.156 104.867 979.684 105.08 980.324 105.08ZM990.811 107.128C989.904 107.128 989.088 106.941 988.363 106.568C987.648 106.184 987.088 105.656 986.683 104.984C986.277 104.312 986.075 103.549 986.075 102.696C986.075 101.843 986.277 101.08 986.683 100.408C987.088 99.736 987.648 99.2133 988.363 98.84C989.088 98.456 989.904 98.264 990.811 98.264C991.717 98.264 992.528 98.456 993.243 98.84C993.957 99.2133 994.517 99.736 994.923 100.408C995.328 101.08 995.531 101.843 995.531 102.696C995.531 103.549 995.328 104.312 994.923 104.984C994.517 105.656 993.957 106.184 993.243 106.568C992.528 106.941 991.717 107.128 990.811 107.128ZM990.811 105.08C991.451 105.08 991.973 104.867 992.379 104.44C992.795 104.003 993.003 103.421 993.003 102.696C993.003 101.971 992.795 101.395 992.379 100.968C991.973 100.531 991.451 100.312 990.811 100.312C990.171 100.312 989.643 100.531 989.227 100.968C988.811 101.395 988.603 101.971 988.603 102.696C988.603 103.421 988.811 104.003 989.227 104.44C989.643 104.867 990.171 105.08 990.811 105.08ZM1005.87 98.392V107H1003.5V105.976C1003.17 106.349 1002.78 106.637 1002.32 106.84C1001.86 107.032 1001.36 107.128 1000.83 107.128C999.7 107.128 998.804 106.803 998.143 106.152C997.482 105.501 997.151 104.536 997.151 103.256V98.392H999.647V102.888C999.647 104.275 1000.23 104.968 1001.39 104.968C1001.99 104.968 1002.47 104.776 1002.83 104.392C1003.19 103.997 1003.37 103.416 1003.37 102.648V98.392H1005.87ZM1013.74 106.584C1013.49 106.765 1013.19 106.904 1012.82 107C1012.47 107.085 1012.1 107.128 1011.7 107.128C1010.68 107.128 1009.88 106.867 1009.32 106.344C1008.76 105.821 1008.49 105.053 1008.49 104.04V100.504H1007.16V98.584H1008.49V96.488H1010.98V98.584H1013.13V100.504H1010.98V104.008C1010.98 104.371 1011.07 104.653 1011.26 104.856C1011.45 105.048 1011.71 105.144 1012.06 105.144C1012.45 105.144 1012.79 105.037 1013.06 104.824L1013.74 106.584ZM1028.34 98.392V107H1025.97V105.976C1025.64 106.349 1025.25 106.637 1024.79 106.84C1024.33 107.032 1023.83 107.128 1023.3 107.128C1022.17 107.128 1021.27 106.803 1020.61 106.152C1019.95 105.501 1019.62 104.536 1019.62 103.256V98.392H1022.12V102.888C1022.12 104.275 1022.7 104.968 1023.86 104.968C1024.46 104.968 1024.94 104.776 1025.3 104.392C1025.66 103.997 1025.84 103.416 1025.84 102.648V98.392H1028.34ZM1033.55 107.128C1032.83 107.128 1032.13 107.043 1031.45 106.872C1030.77 106.691 1030.23 106.467 1029.82 106.2L1030.65 104.408C1031.04 104.653 1031.5 104.856 1032.04 105.016C1032.59 105.165 1033.12 105.24 1033.64 105.24C1034.7 105.24 1035.23 104.979 1035.23 104.456C1035.23 104.211 1035.08 104.035 1034.8 103.928C1034.51 103.821 1034.07 103.731 1033.47 103.656C1032.76 103.549 1032.18 103.427 1031.72 103.288C1031.27 103.149 1030.87 102.904 1030.52 102.552C1030.19 102.2 1030.03 101.699 1030.03 101.048C1030.03 100.504 1030.18 100.024 1030.49 99.608C1030.81 99.1813 1031.27 98.8507 1031.87 98.616C1032.48 98.3813 1033.19 98.264 1034.01 98.264C1034.62 98.264 1035.22 98.3333 1035.82 98.472C1036.43 98.6 1036.93 98.7813 1037.32 99.016L1036.49 100.792C1035.73 100.365 1034.91 100.152 1034.01 100.152C1033.48 100.152 1033.08 100.227 1032.81 100.376C1032.55 100.525 1032.41 100.717 1032.41 100.952C1032.41 101.219 1032.56 101.405 1032.84 101.512C1033.13 101.619 1033.59 101.72 1034.22 101.816C1034.92 101.933 1035.5 102.061 1035.95 102.2C1036.4 102.328 1036.79 102.568 1037.12 102.92C1037.45 103.272 1037.61 103.763 1037.61 104.392C1037.61 104.925 1037.45 105.4 1037.13 105.816C1036.81 106.232 1036.34 106.557 1035.72 106.792C1035.12 107.016 1034.39 107.128 1033.55 107.128Z" fill="#F0145A"/>
<rect x="964" y="114" width="74" height="2" fill="#F0145A"/>
<path d="M1058.02 107.128C1057.3 107.128 1056.6 107.043 1055.92 106.872C1055.24 106.691 1054.69 106.467 1054.29 106.2L1055.12 104.408C1055.5 104.653 1055.97 104.856 1056.51 105.016C1057.06 105.165 1057.59 105.24 1058.11 105.24C1059.17 105.24 1059.7 104.979 1059.7 104.456C1059.7 104.211 1059.55 104.035 1059.26 103.928C1058.98 103.821 1058.53 103.731 1057.94 103.656C1057.23 103.549 1056.65 103.427 1056.19 103.288C1055.73 103.149 1055.33 102.904 1054.99 102.552C1054.66 102.2 1054.5 101.699 1054.5 101.048C1054.5 100.504 1054.65 100.024 1054.96 99.608C1055.28 99.1813 1055.74 98.8507 1056.34 98.616C1056.94 98.3813 1057.66 98.264 1058.48 98.264C1059.09 98.264 1059.69 98.3333 1060.29 98.472C1060.9 98.6 1061.4 98.7813 1061.79 99.016L1060.96 100.792C1060.2 100.365 1059.38 100.152 1058.48 100.152C1057.95 100.152 1057.55 100.227 1057.28 100.376C1057.01 100.525 1056.88 100.717 1056.88 100.952C1056.88 101.219 1057.02 101.405 1057.31 101.512C1057.6 101.619 1058.06 101.72 1058.69 101.816C1059.39 101.933 1059.97 102.061 1060.42 102.2C1060.86 102.328 1061.25 102.568 1061.58 102.92C1061.92 103.272 1062.08 103.763 1062.08 104.392C1062.08 104.925 1061.92 105.4 1061.6 105.816C1061.28 106.232 1060.81 106.557 1060.19 106.792C1059.58 107.016 1058.86 107.128 1058.02 107.128ZM1072.05 102.728C1072.05 102.76 1072.04 102.984 1072 103.4H1065.49C1065.61 103.933 1065.89 104.355 1066.32 104.664C1066.76 104.973 1067.31 105.128 1067.96 105.128C1068.4 105.128 1068.8 105.064 1069.14 104.936C1069.49 104.797 1069.82 104.584 1070.12 104.296L1071.44 105.736C1070.63 106.664 1069.45 107.128 1067.89 107.128C1066.92 107.128 1066.06 106.941 1065.32 106.568C1064.57 106.184 1063.99 105.656 1063.59 104.984C1063.18 104.312 1062.98 103.549 1062.98 102.696C1062.98 101.853 1063.18 101.096 1063.57 100.424C1063.98 99.7413 1064.53 99.2133 1065.22 98.84C1065.92 98.456 1066.71 98.264 1067.57 98.264C1068.42 98.264 1069.18 98.4453 1069.86 98.808C1070.54 99.1707 1071.08 99.6933 1071.46 100.376C1071.86 101.048 1072.05 101.832 1072.05 102.728ZM1067.59 100.152C1067.02 100.152 1066.55 100.312 1066.16 100.632C1065.78 100.952 1065.55 101.389 1065.46 101.944H1069.7C1069.62 101.4 1069.38 100.968 1069 100.648C1068.61 100.317 1068.14 100.152 1067.59 100.152ZM1076.1 99.528C1076.4 99.112 1076.8 98.7973 1077.3 98.584C1077.81 98.3707 1078.4 98.264 1079.06 98.264V100.568C1078.78 100.547 1078.59 100.536 1078.5 100.536C1077.78 100.536 1077.22 100.739 1076.82 101.144C1076.41 101.539 1076.21 102.136 1076.21 102.936V107H1073.71V98.392H1076.1V99.528ZM1089.38 98.392L1085.75 107H1083.18L1079.56 98.392H1082.14L1084.52 104.248L1086.98 98.392H1089.38ZM1090.4 98.392H1092.9V107H1090.4V98.392ZM1091.65 97.192C1091.19 97.192 1090.82 97.0587 1090.53 96.792C1090.24 96.5253 1090.1 96.1947 1090.1 95.8C1090.1 95.4053 1090.24 95.0747 1090.53 94.808C1090.82 94.5413 1091.19 94.408 1091.65 94.408C1092.11 94.408 1092.48 94.536 1092.77 94.792C1093.06 95.048 1093.2 95.368 1093.2 95.752C1093.2 96.168 1093.06 96.5147 1092.77 96.792C1092.48 97.0587 1092.11 97.192 1091.65 97.192ZM1099.37 107.128C1098.46 107.128 1097.63 106.941 1096.89 106.568C1096.17 106.184 1095.6 105.656 1095.18 104.984C1094.78 104.312 1094.57 103.549 1094.57 102.696C1094.57 101.843 1094.78 101.08 1095.18 100.408C1095.6 99.736 1096.17 99.2133 1096.89 98.84C1097.63 98.456 1098.46 98.264 1099.37 98.264C1100.28 98.264 1101.07 98.456 1101.74 98.84C1102.43 99.2133 1102.92 99.752 1103.23 100.456L1101.29 101.496C1100.85 100.707 1100.2 100.312 1099.36 100.312C1098.71 100.312 1098.17 100.525 1097.74 100.952C1097.32 101.379 1097.1 101.96 1097.1 102.696C1097.1 103.432 1097.32 104.013 1097.74 104.44C1098.17 104.867 1098.71 105.08 1099.36 105.08C1100.21 105.08 1100.86 104.685 1101.29 103.896L1103.23 104.952C1102.92 105.635 1102.43 106.168 1101.74 106.552C1101.07 106.936 1100.28 107.128 1099.37 107.128ZM1112.99 102.728C1112.99 102.76 1112.97 102.984 1112.94 103.4H1106.43C1106.55 103.933 1106.82 104.355 1107.26 104.664C1107.7 104.973 1108.24 105.128 1108.89 105.128C1109.34 105.128 1109.74 105.064 1110.08 104.936C1110.43 104.797 1110.76 104.584 1111.05 104.296L1112.38 105.736C1111.57 106.664 1110.39 107.128 1108.83 107.128C1107.86 107.128 1107 106.941 1106.25 106.568C1105.51 106.184 1104.93 105.656 1104.53 104.984C1104.12 104.312 1103.92 103.549 1103.92 102.696C1103.92 101.853 1104.12 101.096 1104.51 100.424C1104.92 99.7413 1105.46 99.2133 1106.16 98.84C1106.86 98.456 1107.65 98.264 1108.51 98.264C1109.35 98.264 1110.12 98.4453 1110.8 98.808C1111.48 99.1707 1112.01 99.6933 1112.4 100.376C1112.79 101.048 1112.99 101.832 1112.99 102.728ZM1108.53 100.152C1107.96 100.152 1107.49 100.312 1107.1 100.632C1106.72 100.952 1106.48 101.389 1106.4 101.944H1110.64C1110.55 101.4 1110.32 100.968 1109.93 100.648C1109.55 100.317 1109.08 100.152 1108.53 100.152ZM1117.55 107.128C1116.83 107.128 1116.13 107.043 1115.45 106.872C1114.77 106.691 1114.23 106.467 1113.82 106.2L1114.65 104.408C1115.04 104.653 1115.5 104.856 1116.04 105.016C1116.59 105.165 1117.12 105.24 1117.64 105.24C1118.7 105.24 1119.23 104.979 1119.23 104.456C1119.23 104.211 1119.08 104.035 1118.8 103.928C1118.51 103.821 1118.07 103.731 1117.47 103.656C1116.76 103.549 1116.18 103.427 1115.72 103.288C1115.27 103.149 1114.87 102.904 1114.52 102.552C1114.19 102.2 1114.03 101.699 1114.03 101.048C1114.03 100.504 1114.18 100.024 1114.49 99.608C1114.81 99.1813 1115.27 98.8507 1115.87 98.616C1116.48 98.3813 1117.19 98.264 1118.01 98.264C1118.62 98.264 1119.22 98.3333 1119.82 98.472C1120.43 98.6 1120.93 98.7813 1121.32 99.016L1120.49 100.792C1119.73 100.365 1118.91 100.152 1118.01 100.152C1117.48 100.152 1117.08 100.227 1116.81 100.376C1116.55 100.525 1116.41 100.717 1116.41 100.952C1116.41 101.219 1116.56 101.405 1116.84 101.512C1117.13 101.619 1117.59 101.72 1118.22 101.816C1118.92 101.933 1119.5 102.061 1119.95 102.2C1120.4 102.328 1120.79 102.568 1121.12 102.92C1121.45 103.272 1121.61 103.763 1121.61 104.392C1121.61 104.925 1121.45 105.4 1121.13 105.816C1120.81 106.232 1120.34 106.557 1119.72 106.792C1119.12 107.016 1118.39 107.128 1117.55 107.128Z" fill="#24A3FF"/>
<path d="M1144.5 106.584C1144.26 106.765 1143.95 106.904 1143.59 107C1143.24 107.085 1142.86 107.128 1142.47 107.128C1141.44 107.128 1140.65 106.867 1140.08 106.344C1139.53 105.821 1139.25 105.053 1139.25 104.04V100.504H1137.92V98.584H1139.25V96.488H1141.75V98.584H1143.89V100.504H1141.75V104.008C1141.75 104.371 1141.84 104.653 1142.02 104.856C1142.21 105.048 1142.48 105.144 1142.82 105.144C1143.22 105.144 1143.55 105.037 1143.83 104.824L1144.5 106.584ZM1154.07 102.728C1154.07 102.76 1154.05 102.984 1154.02 103.4H1147.51C1147.63 103.933 1147.9 104.355 1148.34 104.664C1148.78 104.973 1149.32 105.128 1149.97 105.128C1150.42 105.128 1150.82 105.064 1151.16 104.936C1151.51 104.797 1151.83 104.584 1152.13 104.296L1153.46 105.736C1152.65 106.664 1151.47 107.128 1149.91 107.128C1148.94 107.128 1148.08 106.941 1147.33 106.568C1146.59 106.184 1146.01 105.656 1145.6 104.984C1145.2 104.312 1145 103.549 1145 102.696C1145 101.853 1145.19 101.096 1145.59 100.424C1145.99 99.7413 1146.54 99.2133 1147.24 98.84C1147.94 98.456 1148.72 98.264 1149.59 98.264C1150.43 98.264 1151.19 98.4453 1151.88 98.808C1152.56 99.1707 1153.09 99.6933 1153.48 100.376C1153.87 101.048 1154.07 101.832 1154.07 102.728ZM1149.6 100.152C1149.04 100.152 1148.56 100.312 1148.18 100.632C1147.8 100.952 1147.56 101.389 1147.48 101.944H1151.72C1151.63 101.4 1151.4 100.968 1151.01 100.648C1150.63 100.317 1150.16 100.152 1149.6 100.152ZM1158.97 98.264C1160.3 98.264 1161.33 98.584 1162.04 99.224C1162.75 99.8533 1163.11 100.808 1163.11 102.088V107H1160.78V105.928C1160.31 106.728 1159.43 107.128 1158.15 107.128C1157.49 107.128 1156.91 107.016 1156.42 106.792C1155.94 106.568 1155.58 106.259 1155.32 105.864C1155.06 105.469 1154.94 105.021 1154.94 104.52C1154.94 103.72 1155.23 103.091 1155.83 102.632C1156.44 102.173 1157.37 101.944 1158.63 101.944H1160.62C1160.62 101.4 1160.45 100.984 1160.12 100.696C1159.79 100.397 1159.29 100.248 1158.63 100.248C1158.17 100.248 1157.72 100.323 1157.27 100.472C1156.83 100.611 1156.46 100.803 1156.15 101.048L1155.26 99.304C1155.73 98.9733 1156.29 98.7173 1156.94 98.536C1157.6 98.3547 1158.27 98.264 1158.97 98.264ZM1158.78 105.448C1159.2 105.448 1159.58 105.352 1159.91 105.16C1160.24 104.957 1160.48 104.664 1160.62 104.28V103.4H1158.9C1157.88 103.4 1157.37 103.736 1157.37 104.408C1157.37 104.728 1157.49 104.984 1157.74 105.176C1157.99 105.357 1158.34 105.448 1158.78 105.448ZM1176.39 98.264C1177.47 98.264 1178.33 98.584 1178.95 99.224C1179.59 99.8533 1179.91 100.803 1179.91 102.072V107H1177.42V102.456C1177.42 101.773 1177.27 101.267 1176.99 100.936C1176.71 100.595 1176.31 100.424 1175.79 100.424C1175.2 100.424 1174.74 100.616 1174.39 101C1174.05 101.373 1173.88 101.933 1173.88 102.68V107H1171.39V102.456C1171.39 101.101 1170.84 100.424 1169.75 100.424C1169.18 100.424 1168.72 100.616 1168.38 101C1168.04 101.373 1167.87 101.933 1167.87 102.68V107H1165.37V98.392H1167.75V99.384C1168.07 99.0213 1168.46 98.744 1168.92 98.552C1169.39 98.36 1169.9 98.264 1170.46 98.264C1171.07 98.264 1171.62 98.3867 1172.11 98.632C1172.6 98.8667 1172.99 99.2133 1173.29 99.672C1173.64 99.224 1174.09 98.8773 1174.62 98.632C1175.16 98.3867 1175.75 98.264 1176.39 98.264Z" fill="#24A3FF"/>
<path d="M1202.4 98.264C1203.2 98.264 1203.92 98.4507 1204.57 98.824C1205.23 99.1867 1205.75 99.704 1206.12 100.376C1206.5 101.037 1206.68 101.811 1206.68 102.696C1206.68 103.581 1206.5 104.36 1206.12 105.032C1205.75 105.693 1205.23 106.211 1204.57 106.584C1203.92 106.947 1203.2 107.128 1202.4 107.128C1201.3 107.128 1200.43 106.781 1199.8 106.088V110.104H1197.31V98.392H1199.69V99.384C1200.31 98.6373 1201.21 98.264 1202.4 98.264ZM1201.96 105.08C1202.6 105.08 1203.13 104.867 1203.53 104.44C1203.95 104.003 1204.16 103.421 1204.16 102.696C1204.16 101.971 1203.95 101.395 1203.53 100.968C1203.13 100.531 1202.6 100.312 1201.96 100.312C1201.32 100.312 1200.8 100.531 1200.38 100.968C1199.97 101.395 1199.77 101.971 1199.77 102.696C1199.77 103.421 1199.97 104.003 1200.38 104.44C1200.8 104.867 1201.32 105.08 1201.96 105.08ZM1217.03 98.392V107H1214.66V105.976C1214.33 106.349 1213.93 106.637 1213.48 106.84C1213.02 107.032 1212.52 107.128 1211.99 107.128C1210.86 107.128 1209.96 106.803 1209.3 106.152C1208.64 105.501 1208.31 104.536 1208.31 103.256V98.392H1210.8V102.888C1210.8 104.275 1211.38 104.968 1212.55 104.968C1213.14 104.968 1213.62 104.776 1213.99 104.392C1214.35 103.997 1214.53 103.416 1214.53 102.648V98.392H1217.03ZM1224.43 98.264C1225.23 98.264 1225.95 98.4507 1226.6 98.824C1227.26 99.1867 1227.78 99.704 1228.16 100.376C1228.53 101.037 1228.72 101.811 1228.72 102.696C1228.72 103.581 1228.53 104.36 1228.16 105.032C1227.78 105.693 1227.26 106.211 1226.6 106.584C1225.95 106.947 1225.23 107.128 1224.43 107.128C1223.24 107.128 1222.34 106.755 1221.72 106.008V107H1219.34V95.128H1221.84V99.304C1222.46 98.6107 1223.33 98.264 1224.43 98.264ZM1224 105.08C1224.64 105.08 1225.16 104.867 1225.56 104.44C1225.98 104.003 1226.19 103.421 1226.19 102.696C1226.19 101.971 1225.98 101.395 1225.56 100.968C1225.16 100.531 1224.64 100.312 1224 100.312C1223.36 100.312 1222.83 100.531 1222.41 100.968C1222.01 101.395 1221.8 101.971 1221.8 102.696C1221.8 103.421 1222.01 104.003 1222.41 104.44C1222.83 104.867 1223.36 105.08 1224 105.08ZM1230.39 95.128H1232.88V107H1230.39V95.128ZM1235.2 98.392H1237.69V107H1235.2V98.392ZM1236.45 97.192C1235.99 97.192 1235.61 97.0587 1235.33 96.792C1235.04 96.5253 1234.89 96.1947 1234.89 95.8C1234.89 95.4053 1235.04 95.0747 1235.33 94.808C1235.61 94.5413 1235.99 94.408 1236.45 94.408C1236.91 94.408 1237.28 94.536 1237.57 94.792C1237.85 95.048 1238 95.368 1238 95.752C1238 96.168 1237.85 96.5147 1237.57 96.792C1237.28 97.0587 1236.91 97.192 1236.45 97.192ZM1244.17 107.128C1243.25 107.128 1242.43 106.941 1241.69 106.568C1240.97 106.184 1240.4 105.656 1239.98 104.984C1239.57 104.312 1239.37 103.549 1239.37 102.696C1239.37 101.843 1239.57 101.08 1239.98 100.408C1240.4 99.736 1240.97 99.2133 1241.69 98.84C1242.43 98.456 1243.25 98.264 1244.17 98.264C1245.08 98.264 1245.87 98.456 1246.54 98.84C1247.22 99.2133 1247.72 99.752 1248.03 100.456L1246.09 101.496C1245.64 100.707 1245 100.312 1244.16 100.312C1243.5 100.312 1242.97 100.525 1242.54 100.952C1242.11 101.379 1241.9 101.96 1241.9 102.696C1241.9 103.432 1242.11 104.013 1242.54 104.44C1242.97 104.867 1243.5 105.08 1244.16 105.08C1245.01 105.08 1245.65 104.685 1246.09 103.896L1248.03 104.952C1247.72 105.635 1247.22 106.168 1246.54 106.552C1245.87 106.936 1245.08 107.128 1244.17 107.128ZM1252.94 98.264C1254.27 98.264 1255.29 98.584 1256.01 99.224C1256.72 99.8533 1257.08 100.808 1257.08 102.088V107H1254.74V105.928C1254.28 106.728 1253.4 107.128 1252.12 107.128C1251.46 107.128 1250.88 107.016 1250.39 106.792C1249.91 106.568 1249.54 106.259 1249.29 105.864C1249.03 105.469 1248.9 105.021 1248.9 104.52C1248.9 103.72 1249.2 103.091 1249.8 102.632C1250.41 102.173 1251.34 101.944 1252.6 101.944H1254.58C1254.58 101.4 1254.42 100.984 1254.09 100.696C1253.76 100.397 1253.26 100.248 1252.6 100.248C1252.14 100.248 1251.69 100.323 1251.24 100.472C1250.8 100.611 1250.43 100.803 1250.12 101.048L1249.22 99.304C1249.69 98.9733 1250.25 98.7173 1250.9 98.536C1251.57 98.3547 1252.24 98.264 1252.94 98.264ZM1252.74 105.448C1253.17 105.448 1253.55 105.352 1253.88 105.16C1254.21 104.957 1254.45 104.664 1254.58 104.28V103.4H1252.87C1251.85 103.4 1251.34 103.736 1251.34 104.408C1251.34 104.728 1251.46 104.984 1251.7 105.176C1251.96 105.357 1252.31 105.448 1252.74 105.448ZM1264.89 106.584C1264.65 106.765 1264.34 106.904 1263.98 107C1263.63 107.085 1263.25 107.128 1262.86 107.128C1261.84 107.128 1261.04 106.867 1260.48 106.344C1259.92 105.821 1259.64 105.053 1259.64 104.04V100.504H1258.32V98.584H1259.64V96.488H1262.14V98.584H1264.28V100.504H1262.14V104.008C1262.14 104.371 1262.23 104.653 1262.41 104.856C1262.6 105.048 1262.87 105.144 1263.21 105.144C1263.61 105.144 1263.94 105.037 1264.22 104.824L1264.89 106.584ZM1266.29 98.392H1268.79V107H1266.29V98.392ZM1267.54 97.192C1267.08 97.192 1266.71 97.0587 1266.42 96.792C1266.13 96.5253 1265.99 96.1947 1265.99 95.8C1265.99 95.4053 1266.13 95.0747 1266.42 94.808C1266.71 94.5413 1267.08 94.408 1267.54 94.408C1268 94.408 1268.37 94.536 1268.66 94.792C1268.95 95.048 1269.09 95.368 1269.09 95.752C1269.09 96.168 1268.95 96.5147 1268.66 96.792C1268.37 97.0587 1268 97.192 1267.54 97.192ZM1275.2 107.128C1274.29 107.128 1273.48 106.941 1272.75 106.568C1272.04 106.184 1271.48 105.656 1271.07 104.984C1270.67 104.312 1270.47 103.549 1270.47 102.696C1270.47 101.843 1270.67 101.08 1271.07 100.408C1271.48 99.736 1272.04 99.2133 1272.75 98.84C1273.48 98.456 1274.29 98.264 1275.2 98.264C1276.11 98.264 1276.92 98.456 1277.63 98.84C1278.35 99.2133 1278.91 99.736 1279.31 100.408C1279.72 101.08 1279.92 101.843 1279.92 102.696C1279.92 103.549 1279.72 104.312 1279.31 104.984C1278.91 105.656 1278.35 106.184 1277.63 106.568C1276.92 106.941 1276.11 107.128 1275.2 107.128ZM1275.2 105.08C1275.84 105.08 1276.36 104.867 1276.77 104.44C1277.19 104.003 1277.39 103.421 1277.39 102.696C1277.39 101.971 1277.19 101.395 1276.77 100.968C1276.36 100.531 1275.84 100.312 1275.2 100.312C1274.56 100.312 1274.03 100.531 1273.62 100.968C1273.2 101.395 1272.99 101.971 1272.99 102.696C1272.99 103.421 1273.2 104.003 1273.62 104.44C1274.03 104.867 1274.56 105.08 1275.2 105.08ZM1286.82 98.264C1287.89 98.264 1288.75 98.584 1289.4 99.224C1290.06 99.864 1290.39 100.813 1290.39 102.072V107H1287.89V102.456C1287.89 101.773 1287.74 101.267 1287.45 100.936C1287.15 100.595 1286.71 100.424 1286.15 100.424C1285.52 100.424 1285.02 100.621 1284.65 101.016C1284.27 101.4 1284.09 101.976 1284.09 102.744V107H1281.59V98.392H1283.97V99.4C1284.3 99.0373 1284.71 98.76 1285.21 98.568C1285.7 98.3653 1286.23 98.264 1286.82 98.264ZM1295.55 107.128C1294.83 107.128 1294.13 107.043 1293.45 106.872C1292.77 106.691 1292.23 106.467 1291.82 106.2L1292.65 104.408C1293.04 104.653 1293.5 104.856 1294.04 105.016C1294.59 105.165 1295.12 105.24 1295.64 105.24C1296.7 105.24 1297.23 104.979 1297.23 104.456C1297.23 104.211 1297.08 104.035 1296.8 103.928C1296.51 103.821 1296.07 103.731 1295.47 103.656C1294.76 103.549 1294.18 103.427 1293.72 103.288C1293.27 103.149 1292.87 102.904 1292.52 102.552C1292.19 102.2 1292.03 101.699 1292.03 101.048C1292.03 100.504 1292.18 100.024 1292.49 99.608C1292.81 99.1813 1293.27 98.8507 1293.87 98.616C1294.48 98.3813 1295.19 98.264 1296.01 98.264C1296.62 98.264 1297.22 98.3333 1297.82 98.472C1298.43 98.6 1298.93 98.7813 1299.32 99.016L1298.49 100.792C1297.73 100.365 1296.91 100.152 1296.01 100.152C1295.48 100.152 1295.08 100.227 1294.81 100.376C1294.55 100.525 1294.41 100.717 1294.41 100.952C1294.41 101.219 1294.56 101.405 1294.84 101.512C1295.13 101.619 1295.59 101.72 1296.22 101.816C1296.92 101.933 1297.5 102.061 1297.95 102.2C1298.4 102.328 1298.79 102.568 1299.12 102.92C1299.45 103.272 1299.61 103.763 1299.61 104.392C1299.61 104.925 1299.45 105.4 1299.13 105.816C1298.81 106.232 1298.34 106.557 1297.72 106.792C1297.12 107.016 1296.39 107.128 1295.55 107.128Z" fill="#24A3FF"/>
<path d="M1320.97 107.128C1320.05 107.128 1319.22 106.941 1318.49 106.568C1317.76 106.184 1317.19 105.656 1316.78 104.984C1316.37 104.312 1316.17 103.549 1316.17 102.696C1316.17 101.843 1316.37 101.08 1316.78 100.408C1317.19 99.736 1317.76 99.2133 1318.49 98.84C1319.22 98.456 1320.05 98.264 1320.97 98.264C1321.87 98.264 1322.66 98.456 1323.34 98.84C1324.02 99.2133 1324.51 99.752 1324.82 100.456L1322.89 101.496C1322.44 100.707 1321.79 100.312 1320.95 100.312C1320.3 100.312 1319.76 100.525 1319.34 100.952C1318.91 101.379 1318.7 101.96 1318.7 102.696C1318.7 103.432 1318.91 104.013 1319.34 104.44C1319.76 104.867 1320.3 105.08 1320.95 105.08C1321.81 105.08 1322.45 104.685 1322.89 103.896L1324.82 104.952C1324.51 105.635 1324.02 106.168 1323.34 106.552C1322.66 106.936 1321.87 107.128 1320.97 107.128ZM1330.25 107.128C1329.34 107.128 1328.53 106.941 1327.8 106.568C1327.09 106.184 1326.53 105.656 1326.12 104.984C1325.71 104.312 1325.51 103.549 1325.51 102.696C1325.51 101.843 1325.71 101.08 1326.12 100.408C1326.53 99.736 1327.09 99.2133 1327.8 98.84C1328.53 98.456 1329.34 98.264 1330.25 98.264C1331.15 98.264 1331.97 98.456 1332.68 98.84C1333.39 99.2133 1333.95 99.736 1334.36 100.408C1334.77 101.08 1334.97 101.843 1334.97 102.696C1334.97 103.549 1334.77 104.312 1334.36 104.984C1333.95 105.656 1333.39 106.184 1332.68 106.568C1331.97 106.941 1331.15 107.128 1330.25 107.128ZM1330.25 105.08C1330.89 105.08 1331.41 104.867 1331.82 104.44C1332.23 104.003 1332.44 103.421 1332.44 102.696C1332.44 101.971 1332.23 101.395 1331.82 100.968C1331.41 100.531 1330.89 100.312 1330.25 100.312C1329.61 100.312 1329.08 100.531 1328.66 100.968C1328.25 101.395 1328.04 101.971 1328.04 102.696C1328.04 103.421 1328.25 104.003 1328.66 104.44C1329.08 104.867 1329.61 105.08 1330.25 105.08ZM1341.87 98.264C1342.94 98.264 1343.79 98.584 1344.44 99.224C1345.11 99.864 1345.44 100.813 1345.44 102.072V107H1342.94V102.456C1342.94 101.773 1342.79 101.267 1342.49 100.936C1342.19 100.595 1341.76 100.424 1341.2 100.424C1340.57 100.424 1340.07 100.621 1339.69 101.016C1339.32 101.4 1339.13 101.976 1339.13 102.744V107H1336.64V98.392H1339.02V99.4C1339.35 99.0373 1339.76 98.76 1340.25 98.568C1340.74 98.3653 1341.28 98.264 1341.87 98.264ZM1353.25 106.584C1353.01 106.765 1352.7 106.904 1352.34 107C1351.99 107.085 1351.61 107.128 1351.22 107.128C1350.19 107.128 1349.4 106.867 1348.83 106.344C1348.28 105.821 1348 105.053 1348 104.04V100.504H1346.67V98.584H1348V96.488H1350.5V98.584H1352.64V100.504H1350.5V104.008C1350.5 104.371 1350.59 104.653 1350.77 104.856C1350.96 105.048 1351.23 105.144 1351.57 105.144C1351.97 105.144 1352.3 105.037 1352.58 104.824L1353.25 106.584ZM1358.12 98.264C1359.46 98.264 1360.48 98.584 1361.2 99.224C1361.91 99.8533 1362.27 100.808 1362.27 102.088V107H1359.93V105.928C1359.46 106.728 1358.59 107.128 1357.31 107.128C1356.65 107.128 1356.07 107.016 1355.58 106.792C1355.1 106.568 1354.73 106.259 1354.48 105.864C1354.22 105.469 1354.09 105.021 1354.09 104.52C1354.09 103.72 1354.39 103.091 1354.99 102.632C1355.6 102.173 1356.53 101.944 1357.79 101.944H1359.77C1359.77 101.4 1359.61 100.984 1359.28 100.696C1358.95 100.397 1358.45 100.248 1357.79 100.248C1357.33 100.248 1356.88 100.323 1356.43 100.472C1355.99 100.611 1355.62 100.803 1355.31 101.048L1354.41 99.304C1354.88 98.9733 1355.44 98.7173 1356.09 98.536C1356.75 98.3547 1357.43 98.264 1358.12 98.264ZM1357.93 105.448C1358.36 105.448 1358.74 105.352 1359.07 105.16C1359.4 104.957 1359.63 104.664 1359.77 104.28V103.4H1358.06C1357.04 103.4 1356.52 103.736 1356.52 104.408C1356.52 104.728 1356.65 104.984 1356.89 105.176C1357.15 105.357 1357.49 105.448 1357.93 105.448ZM1368.78 107.128C1367.86 107.128 1367.04 106.941 1366.3 106.568C1365.58 106.184 1365 105.656 1364.59 104.984C1364.18 104.312 1363.98 103.549 1363.98 102.696C1363.98 101.843 1364.18 101.08 1364.59 100.408C1365 99.736 1365.58 99.2133 1366.3 98.84C1367.04 98.456 1367.86 98.264 1368.78 98.264C1369.69 98.264 1370.48 98.456 1371.15 98.84C1371.83 99.2133 1372.33 99.752 1372.64 100.456L1370.7 101.496C1370.25 100.707 1369.61 100.312 1368.76 100.312C1368.11 100.312 1367.58 100.525 1367.15 100.952C1366.72 101.379 1366.51 101.96 1366.51 102.696C1366.51 103.432 1366.72 104.013 1367.15 104.44C1367.58 104.867 1368.11 105.08 1368.76 105.08C1369.62 105.08 1370.26 104.685 1370.7 103.896L1372.64 104.952C1372.33 105.635 1371.83 106.168 1371.15 106.552C1370.48 106.936 1369.69 107.128 1368.78 107.128ZM1379.75 106.584C1379.51 106.765 1379.2 106.904 1378.84 107C1378.49 107.085 1378.11 107.128 1377.72 107.128C1376.69 107.128 1375.9 106.867 1375.33 106.344C1374.78 105.821 1374.5 105.053 1374.5 104.04V100.504H1373.17V98.584H1374.5V96.488H1377V98.584H1379.14V100.504H1377V104.008C1377 104.371 1377.09 104.653 1377.27 104.856C1377.46 105.048 1377.73 105.144 1378.07 105.144C1378.47 105.144 1378.8 105.037 1379.08 104.824L1379.75 106.584Z" fill="#24A3FF"/>
<defs>
<clipPath id="clip0_22721_6750">
<rect width="318" height="60" fill="white" transform="translate(60 50)"/>
</clipPath>
<clipPath id="clip1_22721_6750">
<rect width="478" height="25" fill="white" transform="translate(902 50)"/>
</clipPath>
<clipPath id="clip2_22721_6750">
<rect width="24" height="24" fill="white" transform="translate(1356 50.5)"/>
</clipPath>
</defs>
</svg>
