<svg width="1440" height="141" viewBox="0 0 1440 141" fill="none" xmlns="http://www.w3.org/2000/svg">
<rect width="1440" height="141" fill="#F5F5FA"/>
<rect x="60" width="1320" height="2" fill="#E6E6F0"/>
<g clip-path="url(#clip0_22721_8212)">
<path d="M65.296 42.736L63.008 45.056V48H61.824V36.8H63.008V43.568L69.584 36.8H70.944L66.096 41.872L71.28 48H69.872L65.296 42.736ZM79.4529 39.584L75.2449 49.008C74.9035 49.7973 74.5089 50.3573 74.0609 50.688C73.6129 51.0187 73.0742 51.184 72.4449 51.184C72.0395 51.184 71.6609 51.12 71.3089 50.992C70.9569 50.864 70.6529 50.672 70.3969 50.416L70.9249 49.568C71.3515 49.9947 71.8635 50.208 72.4609 50.208C72.8449 50.208 73.1702 50.1013 73.4369 49.888C73.7142 49.6747 73.9702 49.312 74.2049 48.8L74.5729 47.984L70.8129 39.584H71.9969L75.1649 46.736L78.3329 39.584H79.4529ZM81.0528 39.584H82.1888V48H81.0528V39.584ZM81.6288 37.744C81.3941 37.744 81.1968 37.664 81.0368 37.504C80.8768 37.344 80.7968 37.152 80.7968 36.928C80.7968 36.7147 80.8768 36.528 81.0368 36.368C81.1968 36.208 81.3941 36.128 81.6288 36.128C81.8634 36.128 82.0608 36.208 82.2208 36.368C82.3808 36.5173 82.4608 36.6987 82.4608 36.912C82.4608 37.1467 82.3808 37.344 82.2208 37.504C82.0608 37.664 81.8634 37.744 81.6288 37.744ZM92.4216 39.584L88.6776 48H87.5096L83.7816 39.584H84.9656L88.1176 46.752L91.3016 39.584H92.4216ZM93.6026 46.336C93.848 46.336 94.0506 46.4213 94.2106 46.592C94.3706 46.752 94.4506 46.9547 94.4506 47.2C94.4506 47.328 94.4293 47.4667 94.3866 47.616C94.3546 47.7653 94.3013 47.936 94.2266 48.128L93.5546 50.336H92.7866L93.3306 48.016C93.16 47.9627 93.0213 47.8667 92.9146 47.728C92.808 47.5787 92.7546 47.4027 92.7546 47.2C92.7546 46.9547 92.8346 46.752 92.9946 46.592C93.1546 46.4213 93.3573 46.336 93.6026 46.336ZM112.925 36.8V48H111.789V39.04L107.389 46.576H106.829L102.429 39.088V48H101.293V36.8H102.269L107.133 45.104L111.949 36.8H112.925ZM123.662 44.144H116.622C116.686 45.0187 117.022 45.728 117.63 46.272C118.238 46.8053 119.006 47.072 119.934 47.072C120.457 47.072 120.937 46.9813 121.374 46.8C121.811 46.608 122.19 46.3307 122.51 45.968L123.15 46.704C122.777 47.152 122.307 47.4933 121.742 47.728C121.187 47.9627 120.574 48.08 119.902 48.08C119.038 48.08 118.27 47.8987 117.598 47.536C116.937 47.1627 116.419 46.6507 116.046 46C115.673 45.3493 115.486 44.6133 115.486 43.792C115.486 42.9707 115.662 42.2347 116.014 41.584C116.377 40.9333 116.867 40.4267 117.486 40.064C118.115 39.7013 118.819 39.52 119.598 39.52C120.377 39.52 121.075 39.7013 121.694 40.064C122.313 40.4267 122.798 40.9333 123.15 41.584C123.502 42.224 123.678 42.96 123.678 43.792L123.662 44.144ZM119.598 40.496C118.787 40.496 118.105 40.7573 117.55 41.28C117.006 41.792 116.697 42.464 116.622 43.296H122.59C122.515 42.464 122.201 41.792 121.646 41.28C121.102 40.7573 120.419 40.496 119.598 40.496ZM129.478 48.08C128.646 48.08 127.9 47.8987 127.238 47.536C126.588 47.1733 126.076 46.6667 125.702 46.016C125.329 45.3547 125.142 44.6133 125.142 43.792C125.142 42.9707 125.329 42.2347 125.702 41.584C126.076 40.9333 126.588 40.4267 127.238 40.064C127.9 39.7013 128.646 39.52 129.478 39.52C130.204 39.52 130.849 39.664 131.414 39.952C131.99 40.2293 132.444 40.64 132.774 41.184L131.926 41.76C131.649 41.344 131.297 41.0347 130.87 40.832C130.444 40.6187 129.98 40.512 129.478 40.512C128.87 40.512 128.321 40.6507 127.83 40.928C127.35 41.1947 126.972 41.5787 126.694 42.08C126.428 42.5813 126.294 43.152 126.294 43.792C126.294 44.4427 126.428 45.0187 126.694 45.52C126.972 46.0107 127.35 46.3947 127.83 46.672C128.321 46.9387 128.87 47.072 129.478 47.072C129.98 47.072 130.444 46.9707 130.87 46.768C131.297 46.5653 131.649 46.256 131.926 45.84L132.774 46.416C132.444 46.96 131.99 47.376 131.414 47.664C130.838 47.9413 130.193 48.08 129.478 48.08ZM139.169 39.52C140.225 39.52 141.062 39.8293 141.681 40.448C142.31 41.056 142.625 41.9467 142.625 43.12V48H141.489V43.232C141.489 42.3573 141.27 41.6907 140.833 41.232C140.396 40.7733 139.772 40.544 138.961 40.544C138.054 40.544 137.334 40.816 136.801 41.36C136.278 41.8933 136.017 42.6347 136.017 43.584V48H134.881V36.128H136.017V41.056C136.326 40.5653 136.753 40.1867 137.297 39.92C137.841 39.6533 138.465 39.52 139.169 39.52ZM149.997 39.52C151.053 39.52 151.89 39.8293 152.509 40.448C153.138 41.056 153.453 41.9467 153.453 43.12V48H152.317V43.232C152.317 42.3573 152.098 41.6907 151.661 41.232C151.224 40.7733 150.6 40.544 149.789 40.544C148.882 40.544 148.162 40.816 147.629 41.36C147.106 41.8933 146.845 42.6347 146.845 43.584V48H145.709V39.584H146.797V41.136C147.106 40.624 147.533 40.2293 148.077 39.952C148.632 39.664 149.272 39.52 149.997 39.52ZM156.537 39.584H157.673V48H156.537V39.584ZM157.113 37.744C156.878 37.744 156.681 37.664 156.521 37.504C156.361 37.344 156.281 37.152 156.281 36.928C156.281 36.7147 156.361 36.528 156.521 36.368C156.681 36.208 156.878 36.128 157.113 36.128C157.348 36.128 157.545 36.208 157.705 36.368C157.865 36.5173 157.945 36.6987 157.945 36.912C157.945 37.1467 157.865 37.344 157.705 37.504C157.545 37.664 157.348 37.744 157.113 37.744ZM163.954 43.776L161.97 45.6V48H160.834V36.128H161.97V44.176L166.994 39.584H168.402L164.802 43.024L168.738 48H167.346L163.954 43.776ZM173.54 48.08C172.729 48.08 171.998 47.8987 171.348 47.536C170.697 47.1627 170.185 46.6507 169.812 46C169.438 45.3493 169.252 44.6133 169.252 43.792C169.252 42.9707 169.438 42.2347 169.812 41.584C170.185 40.9333 170.697 40.4267 171.348 40.064C171.998 39.7013 172.729 39.52 173.54 39.52C174.35 39.52 175.081 39.7013 175.732 40.064C176.382 40.4267 176.889 40.9333 177.252 41.584C177.625 42.2347 177.812 42.9707 177.812 43.792C177.812 44.6133 177.625 45.3493 177.252 46C176.889 46.6507 176.382 47.1627 175.732 47.536C175.081 47.8987 174.35 48.08 173.54 48.08ZM173.54 47.072C174.137 47.072 174.67 46.9387 175.14 46.672C175.62 46.3947 175.993 46.0053 176.26 45.504C176.526 45.0027 176.66 44.432 176.66 43.792C176.66 43.152 176.526 42.5813 176.26 42.08C175.993 41.5787 175.62 41.1947 175.14 40.928C174.67 40.6507 174.137 40.512 173.54 40.512C172.942 40.512 172.404 40.6507 171.924 40.928C171.454 41.1947 171.081 41.5787 170.804 42.08C170.537 42.5813 170.404 43.152 170.404 43.792C170.404 44.432 170.537 45.0027 170.804 45.504C171.081 46.0053 171.454 46.3947 171.924 46.672C172.404 46.9387 172.942 47.072 173.54 47.072ZM186.969 39.584L183.225 48H182.057L178.329 39.584H179.513L182.665 46.752L185.849 39.584H186.969ZM191.262 39.52C192.361 39.52 193.204 39.7973 193.79 40.352C194.377 40.896 194.67 41.7067 194.67 42.784V48H193.582V46.688C193.326 47.1253 192.948 47.4667 192.446 47.712C191.956 47.9573 191.369 48.08 190.686 48.08C189.748 48.08 189.001 47.856 188.446 47.408C187.892 46.96 187.614 46.368 187.614 45.632C187.614 44.9173 187.87 44.3413 188.382 43.904C188.905 43.4667 189.732 43.248 190.862 43.248H193.534V42.736C193.534 42.0107 193.332 41.4613 192.926 41.088C192.521 40.704 191.929 40.512 191.15 40.512C190.617 40.512 190.105 40.6027 189.614 40.784C189.124 40.9547 188.702 41.1947 188.35 41.504L187.838 40.656C188.265 40.2933 188.777 40.016 189.374 39.824C189.972 39.6213 190.601 39.52 191.262 39.52ZM190.862 47.184C191.502 47.184 192.052 47.04 192.51 46.752C192.969 46.4533 193.31 46.0267 193.534 45.472V44.096H190.894C189.454 44.096 188.734 44.5973 188.734 45.6C188.734 46.0907 188.921 46.48 189.294 46.768C189.668 47.0453 190.19 47.184 190.862 47.184ZM204.199 48.08C203.517 48.08 202.861 47.984 202.231 47.792C201.613 47.5893 201.127 47.3387 200.775 47.04L201.287 46.144C201.639 46.4213 202.082 46.6507 202.615 46.832C203.149 47.0027 203.703 47.088 204.279 47.088C205.047 47.088 205.613 46.9707 205.975 46.736C206.349 46.4907 206.535 46.1493 206.535 45.712C206.535 45.4027 206.434 45.1627 206.231 44.992C206.029 44.8107 205.773 44.6773 205.463 44.592C205.154 44.496 204.743 44.4053 204.231 44.32C203.549 44.192 202.999 44.064 202.583 43.936C202.167 43.7973 201.81 43.568 201.511 43.248C201.223 42.928 201.079 42.4853 201.079 41.92C201.079 41.216 201.373 40.64 201.959 40.192C202.546 39.744 203.362 39.52 204.407 39.52C204.951 39.52 205.495 39.5947 206.039 39.744C206.583 39.8827 207.031 40.0693 207.383 40.304L206.887 41.216C206.194 40.736 205.367 40.496 204.407 40.496C203.682 40.496 203.133 40.624 202.759 40.88C202.397 41.136 202.215 41.472 202.215 41.888C202.215 42.208 202.317 42.464 202.519 42.656C202.733 42.848 202.994 42.992 203.303 43.088C203.613 43.1733 204.039 43.264 204.583 43.36C205.255 43.488 205.794 43.616 206.199 43.744C206.605 43.872 206.951 44.0907 207.239 44.4C207.527 44.7093 207.671 45.136 207.671 45.68C207.671 46.416 207.362 47.0027 206.743 47.44C206.135 47.8667 205.287 48.08 204.199 48.08ZM214.204 47.488C213.99 47.68 213.724 47.8293 213.404 47.936C213.094 48.032 212.769 48.08 212.428 48.08C211.638 48.08 211.03 47.8667 210.604 47.44C210.177 47.0133 209.964 46.4107 209.964 45.632V40.544H208.46V39.584H209.964V37.744H211.1V39.584H213.66V40.544H211.1V45.568C211.1 46.0693 211.222 46.4533 211.468 46.72C211.724 46.976 212.086 47.104 212.556 47.104C212.79 47.104 213.014 47.0667 213.228 46.992C213.452 46.9173 213.644 46.8107 213.804 46.672L214.204 47.488ZM217.36 41.232C217.626 40.6667 218.021 40.24 218.544 39.952C219.077 39.664 219.733 39.52 220.512 39.52V40.624L220.24 40.608C219.354 40.608 218.661 40.88 218.16 41.424C217.658 41.968 217.408 42.7307 217.408 43.712V48H216.272V39.584H217.36V41.232ZM222.665 46.336C222.91 46.336 223.113 46.4213 223.273 46.592C223.433 46.752 223.513 46.9547 223.513 47.2C223.513 47.328 223.492 47.4667 223.449 47.616C223.417 47.7653 223.364 47.936 223.289 48.128L222.617 50.336H221.849L222.393 48.016C222.222 47.9627 222.084 47.8667 221.977 47.728C221.87 47.5787 221.817 47.4027 221.817 47.2C221.817 46.9547 221.897 46.752 222.057 46.592C222.217 46.4213 222.42 46.336 222.665 46.336ZM232.467 36.8V48H231.315V37.824H228.675V36.8H232.467ZM244.665 45.056H242.425V48H241.273V45.056H234.953V44.224L240.889 36.8H242.169L236.441 44.032H241.305V41.44H242.425V44.032H244.665V45.056ZM250.224 34.528H251.264L245.984 49.6H244.944L250.224 34.528ZM255.124 36.8V48H253.972V37.824H251.332V36.8H255.124Z" fill="#323264"/>
<circle cx="270" cy="42" r="3" fill="#B3B3BA"/>
<path d="M288.064 46.644C287.192 46.644 286.404 46.456 285.7 46.08C285.004 45.704 284.456 45.188 284.056 44.532C283.664 43.868 283.468 43.124 283.468 42.3C283.468 41.476 283.664 40.736 284.056 40.08C284.456 39.416 285.004 38.896 285.7 38.52C286.404 38.144 287.192 37.956 288.064 37.956C288.936 37.956 289.72 38.144 290.416 38.52C291.112 38.896 291.66 39.416 292.06 40.08C292.46 40.736 292.66 41.476 292.66 42.3C292.66 43.124 292.46 43.868 292.06 44.532C291.66 45.188 291.112 45.704 290.416 46.08C289.72 46.456 288.936 46.644 288.064 46.644ZM288.064 44.988C288.56 44.988 289.008 44.876 289.408 44.652C289.808 44.42 290.12 44.1 290.344 43.692C290.576 43.284 290.692 42.82 290.692 42.3C290.692 41.78 290.576 41.316 290.344 40.908C290.12 40.5 289.808 40.184 289.408 39.96C289.008 39.728 288.56 39.612 288.064 39.612C287.568 39.612 287.12 39.728 286.72 39.96C286.32 40.184 286.004 40.5 285.772 40.908C285.548 41.316 285.436 41.78 285.436 42.3C285.436 42.82 285.548 43.284 285.772 43.692C286.004 44.1 286.32 44.42 286.72 44.652C287.12 44.876 287.568 44.988 288.064 44.988ZM302.825 38.1V46.5H301.229L297.041 41.4V46.5H295.121V38.1H296.729L300.905 43.2V38.1H302.825ZM317.855 46.5L317.843 41.46L315.371 45.612H314.495L312.035 41.568V46.5H310.211V38.1H311.819L314.963 43.32L318.059 38.1H319.655L319.679 46.5H317.855ZM328.204 44.7H324.304L323.56 46.5H321.568L325.312 38.1H327.232L330.988 46.5H328.948L328.204 44.7ZM327.592 43.224L326.26 40.008L324.928 43.224H327.592ZM336.495 38.1C337.239 38.1 337.883 38.224 338.427 38.472C338.979 38.72 339.403 39.072 339.699 39.528C339.995 39.984 340.143 40.524 340.143 41.148C340.143 41.764 339.995 42.304 339.699 42.768C339.403 43.224 338.979 43.576 338.427 43.824C337.883 44.064 337.239 44.184 336.495 44.184H334.803V46.5H332.859V38.1H336.495ZM336.387 42.6C336.971 42.6 337.415 42.476 337.719 42.228C338.023 41.972 338.175 41.612 338.175 41.148C338.175 40.676 338.023 40.316 337.719 40.068C337.415 39.812 336.971 39.684 336.387 39.684H334.803V42.6H336.387Z" fill="#24A3FF"/>
<g clip-path="url(#clip1_22721_8212)">
<path d="M98 92.1161C98 81.5586 89.4934 73 79 73C68.5066 73 60 81.5586 60 92.1161C60 101.658 66.948 109.566 76.0312 111V97.6419H71.207V92.1161H76.0312V87.9046C76.0312 83.1136 78.8678 80.4672 83.2078 80.4672C85.2866 80.4672 87.4609 80.8406 87.4609 80.8406V85.545H85.0651C82.7048 85.545 81.9688 87.0185 81.9688 88.5302V92.1161H87.2383L86.3959 97.6419H81.9688V111C91.052 109.566 98 101.658 98 92.1161Z" fill="#24A3FF"/>
</g>
<circle cx="111" cy="92" r="3" fill="#B3B3BA"/>
<path d="M129.83 98.192C128.902 98.192 128.076 97.9627 127.35 97.504C126.625 97.0453 126.054 96.384 125.638 95.52C125.233 94.6453 125.03 93.6053 125.03 92.4C125.03 91.1947 125.233 90.16 125.638 89.296C126.054 88.4213 126.625 87.7547 127.35 87.296C128.076 86.8373 128.902 86.608 129.83 86.608C130.758 86.608 131.585 86.8373 132.31 87.296C133.036 87.7547 133.601 88.4213 134.006 89.296C134.422 90.16 134.63 91.1947 134.63 92.4C134.63 93.6053 134.422 94.6453 134.006 95.52C133.601 96.384 133.036 97.0453 132.31 97.504C131.585 97.9627 130.758 98.192 129.83 98.192ZM129.83 96C130.513 96 131.046 95.7067 131.43 95.12C131.825 94.5333 132.022 93.6267 132.022 92.4C132.022 91.1733 131.825 90.2667 131.43 89.68C131.046 89.0933 130.513 88.8 129.83 88.8C129.158 88.8 128.625 89.0933 128.23 89.68C127.846 90.2667 127.654 91.1733 127.654 92.4C127.654 93.6267 127.846 94.5333 128.23 95.12C128.625 95.7067 129.158 96 129.83 96ZM143.554 92.112C144.108 92.3893 144.53 92.752 144.818 93.2C145.116 93.648 145.266 94.1653 145.266 94.752C145.266 95.4453 145.068 96.0533 144.674 96.576C144.279 97.088 143.724 97.488 143.01 97.776C142.295 98.0533 141.468 98.192 140.53 98.192C139.591 98.192 138.764 98.0533 138.05 97.776C137.346 97.488 136.796 97.088 136.402 96.576C136.018 96.0533 135.826 95.4453 135.826 94.752C135.826 94.1653 135.97 93.648 136.258 93.2C136.556 92.752 136.978 92.3893 137.522 92.112C137.106 91.856 136.786 91.536 136.562 91.152C136.338 90.7573 136.226 90.3093 136.226 89.808C136.226 89.1573 136.407 88.592 136.77 88.112C137.132 87.632 137.639 87.264 138.29 87.008C138.94 86.7413 139.687 86.608 140.53 86.608C141.383 86.608 142.135 86.7413 142.786 87.008C143.447 87.264 143.959 87.632 144.322 88.112C144.684 88.592 144.866 89.1573 144.866 89.808C144.866 90.3093 144.754 90.7573 144.53 91.152C144.306 91.536 143.98 91.856 143.554 92.112ZM140.53 88.512C140.007 88.512 139.586 88.64 139.266 88.896C138.956 89.1413 138.802 89.4827 138.802 89.92C138.802 90.3467 138.956 90.6827 139.266 90.928C139.575 91.1733 139.996 91.296 140.53 91.296C141.063 91.296 141.49 91.1733 141.81 90.928C142.13 90.6827 142.29 90.3467 142.29 89.92C142.29 89.4827 142.13 89.1413 141.81 88.896C141.49 88.64 141.063 88.512 140.53 88.512ZM140.53 96.288C141.18 96.288 141.692 96.144 142.066 95.856C142.45 95.5573 142.642 95.1627 142.642 94.672C142.642 94.1813 142.45 93.792 142.066 93.504C141.692 93.216 141.18 93.072 140.53 93.072C139.89 93.072 139.383 93.216 139.01 93.504C138.636 93.792 138.45 94.1813 138.45 94.672C138.45 95.1733 138.636 95.568 139.01 95.856C139.383 96.144 139.89 96.288 140.53 96.288ZM151.252 98.192C150.324 98.192 149.497 97.9627 148.772 97.504C148.047 97.0453 147.476 96.384 147.06 95.52C146.655 94.6453 146.452 93.6053 146.452 92.4C146.452 91.1947 146.655 90.16 147.06 89.296C147.476 88.4213 148.047 87.7547 148.772 87.296C149.497 86.8373 150.324 86.608 151.252 86.608C152.18 86.608 153.007 86.8373 153.732 87.296C154.457 87.7547 155.023 88.4213 155.428 89.296C155.844 90.16 156.052 91.1947 156.052 92.4C156.052 93.6053 155.844 94.6453 155.428 95.52C155.023 96.384 154.457 97.0453 153.732 97.504C153.007 97.9627 152.18 98.192 151.252 98.192ZM151.252 96C151.935 96 152.468 95.7067 152.852 95.12C153.247 94.5333 153.444 93.6267 153.444 92.4C153.444 91.1733 153.247 90.2667 152.852 89.68C152.468 89.0933 151.935 88.8 151.252 88.8C150.58 88.8 150.047 89.0933 149.652 89.68C149.268 90.2667 149.076 91.1733 149.076 92.4C149.076 93.6267 149.268 94.5333 149.652 95.12C150.047 95.7067 150.58 96 151.252 96ZM162.112 98.192C161.184 98.192 160.357 97.9627 159.632 97.504C158.906 97.0453 158.336 96.384 157.92 95.52C157.514 94.6453 157.312 93.6053 157.312 92.4C157.312 91.1947 157.514 90.16 157.92 89.296C158.336 88.4213 158.906 87.7547 159.632 87.296C160.357 86.8373 161.184 86.608 162.112 86.608C163.04 86.608 163.866 86.8373 164.592 87.296C165.317 87.7547 165.882 88.4213 166.288 89.296C166.704 90.16 166.912 91.1947 166.912 92.4C166.912 93.6053 166.704 94.6453 166.288 95.52C165.882 96.384 165.317 97.0453 164.592 97.504C163.866 97.9627 163.04 98.192 162.112 98.192ZM162.112 96C162.794 96 163.328 95.7067 163.712 95.12C164.106 94.5333 164.304 93.6267 164.304 92.4C164.304 91.1733 164.106 90.2667 163.712 89.68C163.328 89.0933 162.794 88.8 162.112 88.8C161.44 88.8 160.906 89.0933 160.512 89.68C160.128 90.2667 159.936 91.1733 159.936 92.4C159.936 93.6267 160.128 94.5333 160.512 95.12C160.906 95.7067 161.44 96 162.112 96ZM181.07 95.888V98H172.606V96.32L176.926 92.24C177.385 91.8027 177.694 91.4293 177.854 91.12C178.014 90.8 178.094 90.4853 178.094 90.176C178.094 89.728 177.939 89.3867 177.63 89.152C177.331 88.9067 176.889 88.784 176.302 88.784C175.811 88.784 175.369 88.88 174.974 89.072C174.579 89.2533 174.249 89.5307 173.982 89.904L172.094 88.688C172.531 88.0373 173.134 87.5307 173.902 87.168C174.67 86.7947 175.55 86.608 176.542 86.608C177.374 86.608 178.099 86.7467 178.718 87.024C179.347 87.2907 179.833 87.6747 180.174 88.176C180.526 88.6667 180.702 89.248 180.702 89.92C180.702 90.528 180.574 91.0987 180.318 91.632C180.062 92.1653 179.566 92.7733 178.83 93.456L176.254 95.888H181.07ZM186.46 86.8V98H183.868V88.88H181.628V86.8H186.46ZM192.725 86.8V98H190.133V88.88H187.893V86.8H192.725ZM203.138 86.608C204.706 86.608 205.933 87.088 206.818 88.048C207.703 88.9973 208.146 90.368 208.146 92.16C208.146 93.4293 207.906 94.5173 207.426 95.424C206.957 96.3307 206.29 97.0187 205.426 97.488C204.562 97.9573 203.565 98.192 202.434 98.192C201.837 98.192 201.266 98.128 200.722 98C200.178 97.8613 199.714 97.6693 199.33 97.424L200.29 95.52C200.834 95.8933 201.533 96.08 202.386 96.08C203.335 96.08 204.087 95.8027 204.642 95.248C205.197 94.6827 205.495 93.872 205.538 92.816C204.866 93.488 203.938 93.824 202.754 93.824C202.039 93.824 201.389 93.68 200.802 93.392C200.215 93.104 199.751 92.6987 199.41 92.176C199.069 91.6427 198.898 91.0293 198.898 90.336C198.898 89.5893 199.085 88.9333 199.458 88.368C199.831 87.8027 200.338 87.3707 200.978 87.072C201.629 86.7627 202.349 86.608 203.138 86.608ZM203.33 91.888C203.895 91.888 204.354 91.7333 204.706 91.424C205.069 91.104 205.25 90.6987 205.25 90.208C205.25 89.7173 205.074 89.3173 204.722 89.008C204.381 88.6987 203.906 88.544 203.298 88.544C202.743 88.544 202.29 88.6933 201.938 88.992C201.597 89.2907 201.426 89.696 201.426 90.208C201.426 90.72 201.597 91.1307 201.938 91.44C202.29 91.7387 202.754 91.888 203.33 91.888ZM217.664 95.888V98H209.2V96.32L213.52 92.24C213.979 91.8027 214.288 91.4293 214.448 91.12C214.608 90.8 214.688 90.4853 214.688 90.176C214.688 89.728 214.533 89.3867 214.224 89.152C213.925 88.9067 213.483 88.784 212.896 88.784C212.405 88.784 211.963 88.88 211.568 89.072C211.173 89.2533 210.843 89.5307 210.576 89.904L208.688 88.688C209.125 88.0373 209.728 87.5307 210.496 87.168C211.264 86.7947 212.144 86.608 213.136 86.608C213.968 86.608 214.693 86.7467 215.312 87.024C215.941 87.2907 216.427 87.6747 216.768 88.176C217.12 88.6667 217.296 89.248 217.296 89.92C217.296 90.528 217.168 91.0987 216.912 91.632C216.656 92.1653 216.16 92.7733 215.424 93.456L212.848 95.888H217.664ZM227.47 86.8V88.48L223.31 98H220.494L224.51 88.912H220.798V90.736H218.494V86.8H227.47Z" fill="#46466E"/>
<circle cx="241" cy="92" r="3" fill="#B3B3BA"/>
<path d="M259.312 98.128C258.395 98.128 257.568 97.9413 256.832 97.568C256.107 97.184 255.536 96.656 255.12 95.984C254.715 95.312 254.512 94.5493 254.512 93.696C254.512 92.8427 254.715 92.08 255.12 91.408C255.536 90.736 256.107 90.2133 256.832 89.84C257.568 89.456 258.395 89.264 259.312 89.264C260.219 89.264 261.008 89.456 261.68 89.84C262.363 90.2133 262.859 90.752 263.168 91.456L261.232 92.496C260.784 91.7067 260.139 91.312 259.296 91.312C258.645 91.312 258.107 91.5253 257.68 91.952C257.253 92.3787 257.04 92.96 257.04 93.696C257.04 94.432 257.253 95.0133 257.68 95.44C258.107 95.8667 258.645 96.08 259.296 96.08C260.149 96.08 260.795 95.6853 261.232 94.896L263.168 95.952C262.859 96.6347 262.363 97.168 261.68 97.552C261.008 97.936 260.219 98.128 259.312 98.128ZM268.592 98.128C267.685 98.128 266.869 97.9413 266.144 97.568C265.429 97.184 264.869 96.656 264.464 95.984C264.058 95.312 263.856 94.5493 263.856 93.696C263.856 92.8427 264.058 92.08 264.464 91.408C264.869 90.736 265.429 90.2133 266.144 89.84C266.869 89.456 267.685 89.264 268.592 89.264C269.498 89.264 270.309 89.456 271.024 89.84C271.738 90.2133 272.298 90.736 272.704 91.408C273.109 92.08 273.312 92.8427 273.312 93.696C273.312 94.5493 273.109 95.312 272.704 95.984C272.298 96.656 271.738 97.184 271.024 97.568C270.309 97.9413 269.498 98.128 268.592 98.128ZM268.592 96.08C269.232 96.08 269.754 95.8667 270.16 95.44C270.576 95.0027 270.784 94.4213 270.784 93.696C270.784 92.9707 270.576 92.3947 270.16 91.968C269.754 91.5307 269.232 91.312 268.592 91.312C267.952 91.312 267.424 91.5307 267.008 91.968C266.592 92.3947 266.384 92.9707 266.384 93.696C266.384 94.4213 266.592 95.0027 267.008 95.44C267.424 95.8667 267.952 96.08 268.592 96.08ZM280.212 89.264C281.279 89.264 282.137 89.584 282.788 90.224C283.449 90.864 283.78 91.8133 283.78 93.072V98H281.284V93.456C281.284 92.7733 281.135 92.2667 280.836 91.936C280.537 91.5947 280.105 91.424 279.54 91.424C278.911 91.424 278.409 91.6213 278.036 92.016C277.663 92.4 277.476 92.976 277.476 93.744V98H274.98V89.392H277.364V90.4C277.695 90.0373 278.105 89.76 278.596 89.568C279.087 89.3653 279.625 89.264 280.212 89.264ZM291.595 97.584C291.349 97.7653 291.045 97.904 290.683 98C290.331 98.0853 289.957 98.128 289.563 98.128C288.539 98.128 287.744 97.8667 287.179 97.344C286.624 96.8213 286.347 96.0533 286.347 95.04V91.504H285.019V89.584H286.347V87.488H288.843V89.584H290.987V91.504H288.843V95.008C288.843 95.3707 288.933 95.6533 289.115 95.856C289.307 96.048 289.573 96.144 289.915 96.144C290.309 96.144 290.645 96.0373 290.923 95.824L291.595 97.584ZM296.468 89.264C297.801 89.264 298.825 89.584 299.54 90.224C300.254 90.8533 300.612 91.808 300.612 93.088V98H298.276V96.928C297.806 97.728 296.932 98.128 295.652 98.128C294.99 98.128 294.414 98.016 293.924 97.792C293.444 97.568 293.076 97.2587 292.82 96.864C292.564 96.4693 292.436 96.0213 292.436 95.52C292.436 94.72 292.734 94.0907 293.332 93.632C293.94 93.1733 294.873 92.944 296.132 92.944H298.116C298.116 92.4 297.95 91.984 297.62 91.696C297.289 91.3973 296.793 91.248 296.132 91.248C295.673 91.248 295.22 91.3227 294.772 91.472C294.334 91.6107 293.961 91.8027 293.652 92.048L292.756 90.304C293.225 89.9733 293.785 89.7173 294.436 89.536C295.097 89.3547 295.774 89.264 296.468 89.264ZM296.276 96.448C296.702 96.448 297.081 96.352 297.412 96.16C297.742 95.9573 297.977 95.664 298.116 95.28V94.4H296.404C295.38 94.4 294.868 94.736 294.868 95.408C294.868 95.728 294.99 95.984 295.236 96.176C295.492 96.3573 295.838 96.448 296.276 96.448ZM307.125 98.128C306.207 98.128 305.381 97.9413 304.645 97.568C303.919 97.184 303.349 96.656 302.933 95.984C302.527 95.312 302.325 94.5493 302.325 93.696C302.325 92.8427 302.527 92.08 302.933 91.408C303.349 90.736 303.919 90.2133 304.645 89.84C305.381 89.456 306.207 89.264 307.125 89.264C308.031 89.264 308.821 89.456 309.493 89.84C310.175 90.2133 310.671 90.752 310.981 91.456L309.045 92.496C308.597 91.7067 307.951 91.312 307.109 91.312C306.458 91.312 305.919 91.5253 305.493 91.952C305.066 92.3787 304.853 92.96 304.853 93.696C304.853 94.432 305.066 95.0133 305.493 95.44C305.919 95.8667 306.458 96.08 307.109 96.08C307.962 96.08 308.607 95.6853 309.045 94.896L310.981 95.952C310.671 96.6347 310.175 97.168 309.493 97.552C308.821 97.936 308.031 98.128 307.125 98.128ZM318.095 97.584C317.849 97.7653 317.545 97.904 317.183 98C316.831 98.0853 316.457 98.128 316.063 98.128C315.039 98.128 314.244 97.8667 313.679 97.344C313.124 96.8213 312.847 96.0533 312.847 95.04V91.504H311.519V89.584H312.847V87.488H315.343V89.584H317.487V91.504H315.343V95.008C315.343 95.3707 315.433 95.6533 315.615 95.856C315.807 96.048 316.073 96.144 316.415 96.144C316.809 96.144 317.145 96.0373 317.423 95.824L318.095 97.584ZM326.712 86.64C328.184 86.64 329.49 86.944 330.632 87.552C331.784 88.1493 332.68 88.976 333.32 90.032C333.96 91.088 334.28 92.2827 334.28 93.616C334.28 94.5547 334.141 95.3653 333.864 96.048C333.597 96.72 333.218 97.232 332.728 97.584C332.237 97.936 331.661 98.112 331 98.112C330.456 98.112 329.997 97.9947 329.624 97.76C329.25 97.5253 328.978 97.1787 328.808 96.72C328.232 97.648 327.32 98.112 326.072 98.112C325.389 98.112 324.765 97.9413 324.2 97.6C323.634 97.2587 323.186 96.784 322.856 96.176C322.536 95.5573 322.376 94.8533 322.376 94.064C322.376 93.2853 322.536 92.592 322.856 91.984C323.186 91.3653 323.629 90.8853 324.184 90.544C324.749 90.2027 325.378 90.032 326.072 90.032C327.128 90.032 327.949 90.384 328.536 91.088V90.144H330.712V95.328C330.712 96.0107 330.968 96.352 331.48 96.352C331.853 96.352 332.141 96.128 332.344 95.68C332.557 95.232 332.664 94.5547 332.664 93.648C332.664 92.5707 332.413 91.6213 331.912 90.8C331.421 89.968 330.722 89.3227 329.816 88.864C328.92 88.3947 327.885 88.16 326.712 88.16C325.538 88.16 324.498 88.4107 323.592 88.912C322.696 89.4027 321.997 90.0853 321.496 90.96C321.005 91.8347 320.76 92.8267 320.76 93.936C320.76 95.0667 321.005 96.0747 321.496 96.96C321.986 97.8347 322.674 98.5173 323.56 99.008C324.456 99.5093 325.485 99.76 326.648 99.76C327.8 99.76 328.85 99.5253 329.8 99.056L330.312 100.528C329.832 100.773 329.261 100.96 328.6 101.088C327.949 101.227 327.298 101.296 326.648 101.296C325.133 101.296 323.794 100.976 322.632 100.336C321.469 99.7067 320.568 98.832 319.928 97.712C319.288 96.592 318.968 95.3333 318.968 93.936C318.968 92.5493 319.288 91.3013 319.928 90.192C320.578 89.0827 321.49 88.2133 322.664 87.584C323.837 86.9547 325.186 86.64 326.712 86.64ZM326.568 96.272C327.154 96.272 327.634 96.08 328.008 95.696C328.381 95.3013 328.568 94.7573 328.568 94.064C328.568 93.3813 328.381 92.848 328.008 92.464C327.634 92.08 327.154 91.888 326.568 91.888C325.97 91.888 325.49 92.0853 325.128 92.48C324.765 92.864 324.584 93.392 324.584 94.064C324.584 94.7467 324.765 95.2853 325.128 95.68C325.49 96.0747 325.97 96.272 326.568 96.272ZM338.794 89.584H341.002V91.504H338.858V98H336.362V91.504H335.034V89.584H336.362V89.2C336.362 88.2187 336.65 87.44 337.226 86.864C337.813 86.288 338.634 86 339.69 86C340.064 86 340.416 86.0427 340.746 86.128C341.088 86.2027 341.37 86.3147 341.594 86.464L340.938 88.272C340.65 88.0693 340.314 87.968 339.93 87.968C339.173 87.968 338.794 88.384 338.794 89.216V89.584ZM346.232 98.128C345.326 98.128 344.51 97.9413 343.784 97.568C343.07 97.184 342.51 96.656 342.104 95.984C341.699 95.312 341.496 94.5493 341.496 93.696C341.496 92.8427 341.699 92.08 342.104 91.408C342.51 90.736 343.07 90.2133 343.784 89.84C344.51 89.456 345.326 89.264 346.232 89.264C347.139 89.264 347.95 89.456 348.664 89.84C349.379 90.2133 349.939 90.736 350.344 91.408C350.75 92.08 350.952 92.8427 350.952 93.696C350.952 94.5493 350.75 95.312 350.344 95.984C349.939 96.656 349.379 97.184 348.664 97.568C347.95 97.9413 347.139 98.128 346.232 98.128ZM346.232 96.08C346.872 96.08 347.395 95.8667 347.8 95.44C348.216 95.0027 348.424 94.4213 348.424 93.696C348.424 92.9707 348.216 92.3947 347.8 91.968C347.395 91.5307 346.872 91.312 346.232 91.312C345.592 91.312 345.064 91.5307 344.648 91.968C344.232 92.3947 344.024 92.9707 344.024 93.696C344.024 94.4213 344.232 95.0027 344.648 95.44C345.064 95.8667 345.592 96.08 346.232 96.08ZM355.005 90.528C355.303 90.112 355.703 89.7973 356.205 89.584C356.717 89.3707 357.303 89.264 357.965 89.264V91.568C357.687 91.5467 357.501 91.536 357.405 91.536C356.69 91.536 356.13 91.7387 355.725 92.144C355.319 92.5387 355.117 93.136 355.117 93.936V98H352.621V89.392H355.005V90.528ZM362.376 98.128C361.661 98.128 360.963 98.0427 360.28 97.872C359.597 97.6907 359.053 97.4667 358.648 97.2L359.48 95.408C359.864 95.6533 360.328 95.856 360.872 96.016C361.416 96.1653 361.949 96.24 362.472 96.24C363.528 96.24 364.056 95.9787 364.056 95.456C364.056 95.2107 363.912 95.0347 363.624 94.928C363.336 94.8213 362.893 94.7307 362.296 94.656C361.592 94.5493 361.011 94.4267 360.552 94.288C360.093 94.1493 359.693 93.904 359.352 93.552C359.021 93.2 358.856 92.6987 358.856 92.048C358.856 91.504 359.011 91.024 359.32 90.608C359.64 90.1813 360.099 89.8507 360.696 89.616C361.304 89.3813 362.019 89.264 362.84 89.264C363.448 89.264 364.051 89.3333 364.648 89.472C365.256 89.6 365.757 89.7813 366.152 90.016L365.32 91.792C364.563 91.3653 363.736 91.152 362.84 91.152C362.307 91.152 361.907 91.2267 361.64 91.376C361.373 91.5253 361.24 91.7173 361.24 91.952C361.24 92.2187 361.384 92.4053 361.672 92.512C361.96 92.6187 362.419 92.72 363.048 92.816C363.752 92.9333 364.328 93.0613 364.776 93.2C365.224 93.328 365.613 93.568 365.944 93.92C366.275 94.272 366.44 94.7627 366.44 95.392C366.44 95.9253 366.28 96.4 365.96 96.816C365.64 97.232 365.171 97.5573 364.552 97.792C363.944 98.016 363.219 98.128 362.376 98.128ZM373.532 97.584C373.287 97.7653 372.983 97.904 372.62 98C372.268 98.0853 371.895 98.128 371.5 98.128C370.476 98.128 369.681 97.8667 369.116 97.344C368.561 96.8213 368.284 96.0533 368.284 95.04V91.504H366.956V89.584H368.284V87.488H370.78V89.584H372.924V91.504H370.78V95.008C370.78 95.3707 370.871 95.6533 371.052 95.856C371.244 96.048 371.511 96.144 371.852 96.144C372.247 96.144 372.583 96.0373 372.86 95.824L373.532 97.584ZM383.605 89.392V98H381.237V96.976C380.907 97.3493 380.512 97.6373 380.053 97.84C379.595 98.032 379.099 98.128 378.565 98.128C377.435 98.128 376.539 97.8027 375.877 97.152C375.216 96.5013 374.885 95.536 374.885 94.256V89.392H377.381V93.888C377.381 95.2747 377.963 95.968 379.125 95.968C379.723 95.968 380.203 95.776 380.565 95.392C380.928 94.9973 381.109 94.416 381.109 93.648V89.392H383.605ZM394.686 86.128V98H392.302V97.008C391.683 97.7547 390.787 98.128 389.614 98.128C388.803 98.128 388.067 97.9467 387.406 97.584C386.755 97.2213 386.243 96.704 385.87 96.032C385.496 95.36 385.31 94.5813 385.31 93.696C385.31 92.8107 385.496 92.032 385.87 91.36C386.243 90.688 386.755 90.1707 387.406 89.808C388.067 89.4453 388.803 89.264 389.614 89.264C390.712 89.264 391.571 89.6107 392.19 90.304V86.128H394.686ZM390.046 96.08C390.675 96.08 391.198 95.8667 391.614 95.44C392.03 95.0027 392.238 94.4213 392.238 93.696C392.238 92.9707 392.03 92.3947 391.614 91.968C391.198 91.5307 390.675 91.312 390.046 91.312C389.406 91.312 388.878 91.5307 388.462 91.968C388.046 92.3947 387.838 92.9707 387.838 93.696C387.838 94.4213 388.046 95.0027 388.462 95.44C388.878 95.8667 389.406 96.08 390.046 96.08ZM405.54 89.392L401.652 98.528C401.257 99.52 400.766 100.219 400.18 100.624C399.604 101.029 398.905 101.232 398.084 101.232C397.636 101.232 397.193 101.163 396.756 101.024C396.318 100.885 395.961 100.693 395.684 100.448L396.596 98.672C396.788 98.8427 397.006 98.976 397.252 99.072C397.508 99.168 397.758 99.216 398.004 99.216C398.345 99.216 398.622 99.1307 398.836 98.96C399.049 98.8 399.241 98.528 399.412 98.144L399.444 98.064L395.716 89.392H398.292L400.708 95.232L403.14 89.392H405.54ZM406.987 98.128C406.549 98.128 406.181 97.9787 405.883 97.68C405.584 97.3813 405.435 97.008 405.435 96.56C405.435 96.1013 405.584 95.7333 405.883 95.456C406.181 95.168 406.549 95.024 406.987 95.024C407.424 95.024 407.792 95.168 408.091 95.456C408.389 95.7333 408.539 96.1013 408.539 96.56C408.539 97.008 408.389 97.3813 408.091 97.68C407.792 97.9787 407.424 98.128 406.987 98.128ZM413.126 98.128C412.411 98.128 411.713 98.0427 411.03 97.872C410.347 97.6907 409.803 97.4667 409.398 97.2L410.23 95.408C410.614 95.6533 411.078 95.856 411.622 96.016C412.166 96.1653 412.699 96.24 413.222 96.24C414.278 96.24 414.806 95.9787 414.806 95.456C414.806 95.2107 414.662 95.0347 414.374 94.928C414.086 94.8213 413.643 94.7307 413.046 94.656C412.342 94.5493 411.761 94.4267 411.302 94.288C410.843 94.1493 410.443 93.904 410.102 93.552C409.771 93.2 409.606 92.6987 409.606 92.048C409.606 91.504 409.761 91.024 410.07 90.608C410.39 90.1813 410.849 89.8507 411.446 89.616C412.054 89.3813 412.769 89.264 413.59 89.264C414.198 89.264 414.801 89.3333 415.398 89.472C416.006 89.6 416.507 89.7813 416.902 90.016L416.07 91.792C415.313 91.3653 414.486 91.152 413.59 91.152C413.057 91.152 412.657 91.2267 412.39 91.376C412.123 91.5253 411.99 91.7173 411.99 91.952C411.99 92.2187 412.134 92.4053 412.422 92.512C412.71 92.6187 413.169 92.72 413.798 92.816C414.502 92.9333 415.078 93.0613 415.526 93.2C415.974 93.328 416.363 93.568 416.694 93.92C417.025 94.272 417.19 94.7627 417.19 95.392C417.19 95.9253 417.03 96.4 416.71 96.816C416.39 97.232 415.921 97.5573 415.302 97.792C414.694 98.016 413.969 98.128 413.126 98.128ZM423.818 89.264C424.618 89.264 425.343 89.4507 425.994 89.824C426.655 90.1867 427.173 90.704 427.546 91.376C427.919 92.0373 428.106 92.8107 428.106 93.696C428.106 94.5813 427.919 95.36 427.546 96.032C427.173 96.6933 426.655 97.2107 425.994 97.584C425.343 97.9467 424.618 98.128 423.818 98.128C422.719 98.128 421.855 97.7813 421.226 97.088V101.104H418.73V89.392H421.114V90.384C421.733 89.6373 422.634 89.264 423.818 89.264ZM423.386 96.08C424.026 96.08 424.549 95.8667 424.954 95.44C425.37 95.0027 425.578 94.4213 425.578 93.696C425.578 92.9707 425.37 92.3947 424.954 91.968C424.549 91.5307 424.026 91.312 423.386 91.312C422.746 91.312 422.218 91.5307 421.802 91.968C421.397 92.3947 421.194 92.9707 421.194 93.696C421.194 94.4213 421.397 95.0027 421.802 95.44C422.218 95.8667 422.746 96.08 423.386 96.08ZM433.108 89.264C434.442 89.264 435.466 89.584 436.18 90.224C436.895 90.8533 437.252 91.808 437.252 93.088V98H434.916V96.928C434.447 97.728 433.572 98.128 432.292 98.128C431.631 98.128 431.055 98.016 430.564 97.792C430.084 97.568 429.716 97.2587 429.46 96.864C429.204 96.4693 429.076 96.0213 429.076 95.52C429.076 94.72 429.375 94.0907 429.972 93.632C430.58 93.1733 431.514 92.944 432.772 92.944H434.756C434.756 92.4 434.591 91.984 434.26 91.696C433.93 91.3973 433.434 91.248 432.772 91.248C432.314 91.248 431.86 91.3227 431.412 91.472C430.975 91.6107 430.602 91.8027 430.292 92.048L429.396 90.304C429.866 89.9733 430.426 89.7173 431.076 89.536C431.738 89.3547 432.415 89.264 433.108 89.264ZM432.916 96.448C433.343 96.448 433.722 96.352 434.052 96.16C434.383 95.9573 434.618 95.664 434.756 95.28V94.4H433.044C432.02 94.4 431.508 94.736 431.508 95.408C431.508 95.728 431.631 95.984 431.876 96.176C432.132 96.3573 432.479 96.448 432.916 96.448ZM443.765 98.128C442.848 98.128 442.021 97.9413 441.285 97.568C440.56 97.184 439.989 96.656 439.573 95.984C439.168 95.312 438.965 94.5493 438.965 93.696C438.965 92.8427 439.168 92.08 439.573 91.408C439.989 90.736 440.56 90.2133 441.285 89.84C442.021 89.456 442.848 89.264 443.765 89.264C444.672 89.264 445.461 89.456 446.133 89.84C446.816 90.2133 447.312 90.752 447.621 91.456L445.685 92.496C445.237 91.7067 444.592 91.312 443.749 91.312C443.098 91.312 442.56 91.5253 442.133 91.952C441.706 92.3787 441.493 92.96 441.493 93.696C441.493 94.432 441.706 95.0133 442.133 95.44C442.56 95.8667 443.098 96.08 443.749 96.08C444.602 96.08 445.248 95.6853 445.685 94.896L447.621 95.952C447.312 96.6347 446.816 97.168 446.133 97.552C445.461 97.936 444.672 98.128 443.765 98.128ZM457.381 93.728C457.381 93.76 457.365 93.984 457.333 94.4H450.821C450.938 94.9333 451.216 95.3547 451.653 95.664C452.09 95.9733 452.634 96.128 453.285 96.128C453.733 96.128 454.128 96.064 454.469 95.936C454.821 95.7973 455.146 95.584 455.445 95.296L456.773 96.736C455.962 97.664 454.778 98.128 453.221 98.128C452.25 98.128 451.392 97.9413 450.645 97.568C449.898 97.184 449.322 96.656 448.917 95.984C448.512 95.312 448.309 94.5493 448.309 93.696C448.309 92.8533 448.506 92.096 448.901 91.424C449.306 90.7413 449.856 90.2133 450.549 89.84C451.253 89.456 452.037 89.264 452.901 89.264C453.744 89.264 454.506 89.4453 455.189 89.808C455.872 90.1707 456.405 90.6933 456.789 91.376C457.184 92.048 457.381 92.832 457.381 93.728ZM452.917 91.152C452.352 91.152 451.877 91.312 451.493 91.632C451.109 91.952 450.874 92.3893 450.789 92.944H455.029C454.944 92.4 454.709 91.968 454.325 91.648C453.941 91.3173 453.472 91.152 452.917 91.152Z" fill="#24A3FF"/>
</g>
<path d="M1110.56 48.048C1109.51 48.048 1108.56 47.7973 1107.69 47.296C1106.84 46.7947 1106.16 46.112 1105.66 45.248C1105.17 44.384 1104.93 43.4347 1104.93 42.4C1104.93 41.3653 1105.17 40.416 1105.66 39.552C1106.16 38.688 1106.85 38.0053 1107.71 37.504C1108.57 37.0027 1109.53 36.752 1110.59 36.752C1111.65 36.752 1112.6 36.9973 1113.45 37.488C1114.32 37.9787 1115 38.656 1115.49 39.52C1115.98 40.3733 1116.22 41.3227 1116.22 42.368C1116.22 43.4133 1115.97 44.3733 1115.47 45.248C1114.97 46.112 1114.29 46.7947 1113.42 47.296C1112.56 47.7973 1111.6 48.048 1110.56 48.048ZM1110.56 47.456C1111.5 47.456 1112.35 47.232 1113.12 46.784C1113.89 46.3253 1114.49 45.712 1114.94 44.944C1115.39 44.1653 1115.61 43.3067 1115.61 42.368C1115.61 41.4293 1115.4 40.5813 1114.96 39.824C1114.52 39.056 1113.92 38.4533 1113.15 38.016C1112.39 37.568 1111.54 37.344 1110.59 37.344C1109.64 37.344 1108.78 37.568 1108 38.016C1107.23 38.464 1106.62 39.0773 1106.17 39.856C1105.74 40.624 1105.52 41.472 1105.52 42.4C1105.52 43.328 1105.74 44.1813 1106.17 44.96C1106.62 45.728 1107.23 46.336 1108 46.784C1108.77 47.232 1109.62 47.456 1110.56 47.456ZM1110.7 45.728C1110.07 45.728 1109.5 45.5893 1108.99 45.312C1108.49 45.024 1108.09 44.6293 1107.81 44.128C1107.52 43.616 1107.37 43.04 1107.37 42.4C1107.37 41.76 1107.52 41.1893 1107.81 40.688C1108.09 40.176 1108.49 39.7813 1108.99 39.504C1109.5 39.216 1110.07 39.072 1110.7 39.072C1111.25 39.072 1111.74 39.184 1112.17 39.408C1112.62 39.6213 1112.98 39.92 1113.25 40.304L1112.56 40.816C1112.33 40.5067 1112.06 40.2773 1111.74 40.128C1111.42 39.9787 1111.07 39.904 1110.69 39.904C1109.99 39.904 1109.42 40.1333 1108.96 40.592C1108.51 41.0507 1108.29 41.6533 1108.29 42.4C1108.29 43.1467 1108.51 43.7493 1108.96 44.208C1109.42 44.6667 1109.99 44.896 1110.69 44.896C1111.07 44.896 1111.42 44.8213 1111.74 44.672C1112.06 44.5227 1112.33 44.2933 1112.56 43.984L1113.25 44.48C1112.98 44.8747 1112.62 45.184 1112.17 45.408C1111.74 45.6213 1111.25 45.728 1110.7 45.728ZM1129.7 46.976V48H1121.84V47.184L1126.5 42.624C1127.09 42.048 1127.48 41.552 1127.68 41.136C1127.9 40.7093 1128 40.2827 1128 39.856C1128 39.1947 1127.77 38.6827 1127.31 38.32C1126.87 37.9467 1126.22 37.76 1125.38 37.76C1124.07 37.76 1123.05 38.176 1122.32 39.008L1121.51 38.304C1121.94 37.792 1122.5 37.3973 1123.17 37.12C1123.85 36.8427 1124.62 36.704 1125.47 36.704C1126.62 36.704 1127.52 36.976 1128.18 37.52C1128.85 38.0533 1129.19 38.7893 1129.19 39.728C1129.19 40.304 1129.06 40.8587 1128.8 41.392C1128.55 41.9253 1128.06 42.5387 1127.35 43.232L1123.54 46.976H1129.7ZM1135.55 48.096C1134.68 48.096 1133.91 47.8667 1133.23 47.408C1132.55 46.9493 1132.03 46.2933 1131.64 45.44C1131.27 44.576 1131.08 43.5627 1131.08 42.4C1131.08 41.2373 1131.27 40.2293 1131.64 39.376C1132.03 38.512 1132.55 37.8507 1133.23 37.392C1133.91 36.9333 1134.68 36.704 1135.55 36.704C1136.41 36.704 1137.18 36.9333 1137.85 37.392C1138.53 37.8507 1139.07 38.512 1139.45 39.376C1139.83 40.2293 1140.03 41.2373 1140.03 42.4C1140.03 43.5627 1139.83 44.576 1139.45 45.44C1139.07 46.2933 1138.53 46.9493 1137.85 47.408C1137.18 47.8667 1136.41 48.096 1135.55 48.096ZM1135.55 47.04C1136.2 47.04 1136.77 46.8587 1137.26 46.496C1137.76 46.1333 1138.15 45.6053 1138.43 44.912C1138.7 44.2187 1138.84 43.3813 1138.84 42.4C1138.84 41.4187 1138.7 40.5813 1138.43 39.888C1138.15 39.1947 1137.76 38.6667 1137.26 38.304C1136.77 37.9413 1136.2 37.76 1135.55 37.76C1134.9 37.76 1134.32 37.9413 1133.82 38.304C1133.33 38.6667 1132.94 39.1947 1132.67 39.888C1132.39 40.5813 1132.25 41.4187 1132.25 42.4C1132.25 43.3813 1132.39 44.2187 1132.67 44.912C1132.94 45.6053 1133.33 46.1333 1133.82 46.496C1134.32 46.8587 1134.9 47.04 1135.55 47.04ZM1149.29 46.976V48H1141.44V47.184L1146.09 42.624C1146.68 42.048 1147.07 41.552 1147.28 41.136C1147.49 40.7093 1147.6 40.2827 1147.6 39.856C1147.6 39.1947 1147.37 38.6827 1146.91 38.32C1146.46 37.9467 1145.82 37.76 1144.97 37.76C1143.66 37.76 1142.64 38.176 1141.92 39.008L1141.1 38.304C1141.54 37.792 1142.09 37.3973 1142.76 37.12C1143.45 36.8427 1144.22 36.704 1145.07 36.704C1146.21 36.704 1147.11 36.976 1147.77 37.52C1148.44 38.0533 1148.78 38.7893 1148.78 39.728C1148.78 40.304 1148.65 40.8587 1148.4 41.392C1148.14 41.9253 1147.66 42.5387 1146.94 43.232L1143.13 46.976H1149.29ZM1153.84 36.8V48H1152.69V37.824H1150.05V36.8H1153.84ZM1171.06 36.8V48H1169.89V42.832H1162.88V48H1161.7V36.8H1162.88V41.792H1169.89V36.8H1171.06ZM1174.71 36.8H1175.9V46.976H1182.17V48H1174.71V36.8ZM1192.06 46.976V48H1184.14V36.8H1191.82V37.824H1185.32V41.808H1191.11V42.816H1185.32V46.976H1192.06ZM1202.67 42.4H1203.8V46.672C1203.28 47.1307 1202.66 47.4827 1201.95 47.728C1201.23 47.9733 1200.48 48.096 1199.69 48.096C1198.57 48.096 1197.56 47.8507 1196.67 47.36C1195.77 46.8693 1195.07 46.192 1194.55 45.328C1194.04 44.4533 1193.79 43.4773 1193.79 42.4C1193.79 41.3227 1194.04 40.352 1194.55 39.488C1195.07 38.6133 1195.77 37.9307 1196.67 37.44C1197.56 36.9493 1198.57 36.704 1199.71 36.704C1200.56 36.704 1201.34 36.8427 1202.06 37.12C1202.77 37.3867 1203.37 37.7867 1203.87 38.32L1203.13 39.072C1202.24 38.1973 1201.12 37.76 1199.75 37.76C1198.85 37.76 1198.03 37.9627 1197.29 38.368C1196.56 38.7627 1195.99 39.3173 1195.58 40.032C1195.16 40.736 1194.95 41.5253 1194.95 42.4C1194.95 43.2747 1195.16 44.064 1195.58 44.768C1195.99 45.472 1196.56 46.0267 1197.29 46.432C1198.01 46.8373 1198.83 47.04 1199.74 47.04C1200.89 47.04 1201.87 46.752 1202.67 46.176V42.4ZM1214.18 45.008H1207.94L1206.59 48H1205.36L1210.48 36.8H1211.65L1216.77 48H1215.52L1214.18 45.008ZM1213.74 44.048L1211.06 38.032L1208.37 44.048H1213.74ZM1218.62 36.8H1219.8V46.976H1226.08V48H1218.62V36.8ZM1232.23 36.8H1233.41V46.976H1239.69V48H1232.23V36.8ZM1244.39 39.52C1245.49 39.52 1246.33 39.7973 1246.92 40.352C1247.5 40.896 1247.8 41.7067 1247.8 42.784V48H1246.71V46.688C1246.45 47.1253 1246.07 47.4667 1245.57 47.712C1245.08 47.9573 1244.49 48.08 1243.81 48.08C1242.87 48.08 1242.13 47.856 1241.57 47.408C1241.02 46.96 1240.74 46.368 1240.74 45.632C1240.74 44.9173 1241 44.3413 1241.51 43.904C1242.03 43.4667 1242.86 43.248 1243.99 43.248H1246.66V42.736C1246.66 42.0107 1246.46 41.4613 1246.05 41.088C1245.65 40.704 1245.05 40.512 1244.28 40.512C1243.74 40.512 1243.23 40.6027 1242.74 40.784C1242.25 40.9547 1241.83 41.1947 1241.48 41.504L1240.96 40.656C1241.39 40.2933 1241.9 40.016 1242.5 39.824C1243.1 39.6213 1243.73 39.52 1244.39 39.52ZM1243.99 47.184C1244.63 47.184 1245.18 47.04 1245.64 46.752C1246.09 46.4533 1246.44 46.0267 1246.66 45.472V44.096H1244.02C1242.58 44.096 1241.86 44.5973 1241.86 45.6C1241.86 46.0907 1242.05 46.48 1242.42 46.768C1242.79 47.0453 1243.32 47.184 1243.99 47.184ZM1263.08 39.584L1259.89 48H1258.82L1256.16 41.104L1253.51 48H1252.44L1249.27 39.584H1250.36L1253 46.736L1255.7 39.584H1256.68L1259.36 46.736L1262.04 39.584H1263.08ZM1272.46 48.08C1271.63 48.08 1270.88 47.8987 1270.22 47.536C1269.57 47.1733 1269.06 46.6667 1268.69 46.016C1268.31 45.3547 1268.13 44.6133 1268.13 43.792C1268.13 42.9707 1268.31 42.2347 1268.69 41.584C1269.06 40.9333 1269.57 40.4267 1270.22 40.064C1270.88 39.7013 1271.63 39.52 1272.46 39.52C1273.19 39.52 1273.83 39.664 1274.4 39.952C1274.97 40.2293 1275.43 40.64 1275.76 41.184L1274.91 41.76C1274.63 41.344 1274.28 41.0347 1273.85 40.832C1273.43 40.6187 1272.96 40.512 1272.46 40.512C1271.85 40.512 1271.31 40.6507 1270.81 40.928C1270.33 41.1947 1269.96 41.5787 1269.68 42.08C1269.41 42.5813 1269.28 43.152 1269.28 43.792C1269.28 44.4427 1269.41 45.0187 1269.68 45.52C1269.96 46.0107 1270.33 46.3947 1270.81 46.672C1271.31 46.9387 1271.85 47.072 1272.46 47.072C1272.96 47.072 1273.43 46.9707 1273.85 46.768C1274.28 46.5653 1274.63 46.256 1274.91 45.84L1275.76 46.416C1275.43 46.96 1274.97 47.376 1274.4 47.664C1273.82 47.9413 1273.18 48.08 1272.46 48.08ZM1281.29 48.08C1280.48 48.08 1279.75 47.8987 1279.1 47.536C1278.45 47.1627 1277.93 46.6507 1277.56 46C1277.19 45.3493 1277 44.6133 1277 43.792C1277 42.9707 1277.19 42.2347 1277.56 41.584C1277.93 40.9333 1278.45 40.4267 1279.1 40.064C1279.75 39.7013 1280.48 39.52 1281.29 39.52C1282.1 39.52 1282.83 39.7013 1283.48 40.064C1284.13 40.4267 1284.64 40.9333 1285 41.584C1285.37 42.2347 1285.56 42.9707 1285.56 43.792C1285.56 44.6133 1285.37 45.3493 1285 46C1284.64 46.6507 1284.13 47.1627 1283.48 47.536C1282.83 47.8987 1282.1 48.08 1281.29 48.08ZM1281.29 47.072C1281.89 47.072 1282.42 46.9387 1282.89 46.672C1283.37 46.3947 1283.74 46.0053 1284.01 45.504C1284.28 45.0027 1284.41 44.432 1284.41 43.792C1284.41 43.152 1284.28 42.5813 1284.01 42.08C1283.74 41.5787 1283.37 41.1947 1282.89 40.928C1282.42 40.6507 1281.89 40.512 1281.29 40.512C1280.69 40.512 1280.15 40.6507 1279.67 40.928C1279.2 41.1947 1278.83 41.5787 1278.55 42.08C1278.29 42.5813 1278.15 43.152 1278.15 43.792C1278.15 44.432 1278.29 45.0027 1278.55 45.504C1278.83 46.0053 1279.2 46.3947 1279.67 46.672C1280.15 46.9387 1280.69 47.072 1281.29 47.072ZM1298.38 39.52C1299.43 39.52 1300.26 39.824 1300.86 40.432C1301.46 41.04 1301.77 41.936 1301.77 43.12V48H1300.63V43.232C1300.63 42.3573 1300.42 41.6907 1299.99 41.232C1299.58 40.7733 1298.98 40.544 1298.22 40.544C1297.34 40.544 1296.65 40.816 1296.15 41.36C1295.65 41.8933 1295.4 42.6347 1295.4 43.584V48H1294.26V43.232C1294.26 42.3573 1294.05 41.6907 1293.62 41.232C1293.21 40.7733 1292.61 40.544 1291.83 40.544C1290.97 40.544 1290.28 40.816 1289.77 41.36C1289.27 41.8933 1289.02 42.6347 1289.02 43.584V48H1287.88V39.584H1288.97V41.12C1289.27 40.608 1289.68 40.2133 1290.22 39.936C1290.75 39.6587 1291.36 39.52 1292.06 39.52C1292.76 39.52 1293.37 39.6693 1293.88 39.968C1294.4 40.2667 1294.79 40.7093 1295.05 41.296C1295.36 40.7413 1295.8 40.3093 1296.38 40C1296.96 39.68 1297.63 39.52 1298.38 39.52ZM1309.19 39.52C1309.97 39.52 1310.69 39.7013 1311.33 40.064C1311.97 40.416 1312.47 40.9173 1312.83 41.568C1313.2 42.2187 1313.38 42.96 1313.38 43.792C1313.38 44.6347 1313.2 45.3813 1312.83 46.032C1312.47 46.6827 1311.97 47.1893 1311.33 47.552C1310.7 47.904 1309.99 48.08 1309.19 48.08C1308.5 48.08 1307.88 47.9413 1307.33 47.664C1306.79 47.376 1306.34 46.96 1305.99 46.416V51.104H1304.85V39.584H1305.94V41.248C1306.28 40.6933 1306.73 40.2667 1307.28 39.968C1307.85 39.6693 1308.48 39.52 1309.19 39.52ZM1309.11 47.072C1309.69 47.072 1310.23 46.9387 1310.71 46.672C1311.19 46.3947 1311.56 46.0053 1311.83 45.504C1312.1 45.0027 1312.24 44.432 1312.24 43.792C1312.24 43.152 1312.1 42.5867 1311.83 42.096C1311.56 41.5947 1311.19 41.2053 1310.71 40.928C1310.23 40.6507 1309.69 40.512 1309.11 40.512C1308.51 40.512 1307.97 40.6507 1307.49 40.928C1307.02 41.2053 1306.65 41.5947 1306.37 42.096C1306.1 42.5867 1305.97 43.152 1305.97 43.792C1305.97 44.432 1306.1 45.0027 1306.37 45.504C1306.65 46.0053 1307.02 46.3947 1307.49 46.672C1307.97 46.9387 1308.51 47.072 1309.11 47.072ZM1318.59 39.52C1319.69 39.52 1320.53 39.7973 1321.12 40.352C1321.71 40.896 1322 41.7067 1322 42.784V48H1320.91V46.688C1320.65 47.1253 1320.28 47.4667 1319.77 47.712C1319.28 47.9573 1318.7 48.08 1318.01 48.08C1317.08 48.08 1316.33 47.856 1315.77 47.408C1315.22 46.96 1314.94 46.368 1314.94 45.632C1314.94 44.9173 1315.2 44.3413 1315.71 43.904C1316.23 43.4667 1317.06 43.248 1318.19 43.248H1320.86V42.736C1320.86 42.0107 1320.66 41.4613 1320.25 41.088C1319.85 40.704 1319.26 40.512 1318.48 40.512C1317.95 40.512 1317.43 40.6027 1316.94 40.784C1316.45 40.9547 1316.03 41.1947 1315.68 41.504L1315.17 40.656C1315.59 40.2933 1316.11 40.016 1316.7 39.824C1317.3 39.6213 1317.93 39.52 1318.59 39.52ZM1318.19 47.184C1318.83 47.184 1319.38 47.04 1319.84 46.752C1320.3 46.4533 1320.64 46.0267 1320.86 45.472V44.096H1318.22C1316.78 44.096 1316.06 44.5973 1316.06 45.6C1316.06 46.0907 1316.25 46.48 1316.62 46.768C1317 47.0453 1317.52 47.184 1318.19 47.184ZM1329.37 39.52C1330.43 39.52 1331.27 39.8293 1331.88 40.448C1332.51 41.056 1332.83 41.9467 1332.83 43.12V48H1331.69V43.232C1331.69 42.3573 1331.47 41.6907 1331.04 41.232C1330.6 40.7733 1329.97 40.544 1329.16 40.544C1328.26 40.544 1327.54 40.816 1327 41.36C1326.48 41.8933 1326.22 42.6347 1326.22 43.584V48H1325.08V39.584H1326.17V41.136C1326.48 40.624 1326.91 40.2293 1327.45 39.952C1328.01 39.664 1328.65 39.52 1329.37 39.52ZM1342.83 39.584L1338.62 49.008C1338.28 49.7973 1337.88 50.3573 1337.44 50.688C1336.99 51.0187 1336.45 51.184 1335.82 51.184C1335.41 51.184 1335.04 51.12 1334.68 50.992C1334.33 50.864 1334.03 50.672 1333.77 50.416L1334.3 49.568C1334.73 49.9947 1335.24 50.208 1335.84 50.208C1336.22 50.208 1336.55 50.1013 1336.81 49.888C1337.09 49.6747 1337.35 49.312 1337.58 48.8L1337.95 47.984L1334.19 39.584H1335.37L1338.54 46.736L1341.71 39.584H1342.83ZM1344.01 46.336C1344.25 46.336 1344.46 46.4213 1344.62 46.592C1344.78 46.752 1344.86 46.9547 1344.86 47.2C1344.86 47.328 1344.84 47.4667 1344.79 47.616C1344.76 47.7653 1344.71 47.936 1344.63 48.128L1343.96 50.336H1343.19L1343.74 48.016C1343.57 47.9627 1343.43 47.8667 1343.32 47.728C1343.21 47.5787 1343.16 47.4027 1343.16 47.2C1343.16 46.9547 1343.24 46.752 1343.4 46.592C1343.56 46.4213 1343.76 46.336 1344.01 46.336ZM1351.7 36.8H1352.88V46.976H1359.16V48H1351.7V36.8ZM1361.12 36.8H1362.3V46.976H1368.58V48H1361.12V36.8ZM1375.19 48.096C1374.08 48.096 1373.08 47.8507 1372.18 47.36C1371.29 46.8693 1370.6 46.192 1370.08 45.328C1369.58 44.4533 1369.33 43.4773 1369.33 42.4C1369.33 41.3227 1369.58 40.352 1370.08 39.488C1370.6 38.6133 1371.3 37.9307 1372.2 37.44C1373.09 36.9493 1374.09 36.704 1375.2 36.704C1376.04 36.704 1376.8 36.8427 1377.51 37.12C1378.21 37.3973 1378.81 37.8027 1379.3 38.336L1378.55 39.088C1377.67 38.2027 1376.57 37.76 1375.24 37.76C1374.35 37.76 1373.55 37.9627 1372.82 38.368C1372.09 38.7733 1371.52 39.328 1371.11 40.032C1370.7 40.736 1370.5 41.5253 1370.5 42.4C1370.5 43.2747 1370.7 44.064 1371.11 44.768C1371.52 45.472 1372.09 46.0267 1372.82 46.432C1373.55 46.8373 1374.35 47.04 1375.24 47.04C1376.58 47.04 1377.68 46.592 1378.55 45.696L1379.3 46.448C1378.81 46.9813 1378.21 47.392 1377.49 47.68C1376.79 47.9573 1376.02 48.096 1375.19 48.096Z" fill="#B3B3BA"/>
<defs>
<clipPath id="clip0_22721_8212">
<rect width="398" height="79" fill="white" transform="translate(60 32)"/>
</clipPath>
<clipPath id="clip1_22721_8212">
<rect width="38" height="38" fill="white" transform="translate(60 73)"/>
</clipPath>
</defs>
</svg>
